<?xml version="1.0"?><svg version="1.2" baseProfile="tiny-ps" viewBox="0 0 300 300" xmlns="http://www.w3.org/2000/svg" xmlns:xlink="http://www.w3.org/1999/xlink"><title>Hidden-Reality</title><g><g fill="#cd8cdf" transform="matrix(.1 0 0 -.1 0 300)"><path d="M1375 2910c-110-12-224-36-309-67-79-29-248-111-308-150l-38-26-19 17-19 17-34 5-35 6-31-16-32-16-15-30c-18-35-19-53-4-94l11-31-45-45-45-45-55 3-55 4-37-34-36-33-6-40-5-40 26-37 25-37-37-76-37-75-20 6c-11 4-41 9-66 11l-46 5-26-32-27-32v-18c0-11 5-31 12-45l12-26 27-15c16-8 40-14 55-14h26l-5-14c-3-8-9-31-13-51l-7-37-14-5c-7-3-20-18-28-34l-15-28v-67l14-19 14-20 1-152 1-151-37-7-36-6-29-29-28-28v-93l16-25c21-32 64-54 104-54h31l13-32 14-33-3-70c-1-38-6-84-10-101l-7-30 16-37 15-37 33-20 33-21 40 5 41 5 51-68 52-67-14-41-14-41 11-38 10-39 34-32 35-32 37-7 37-7 46 17 47 16 84-56c79-53 233-134 255-134h10l6-46 5-46 19-27 20-26 37-12 37-13 33 14 33 14 17 23c9 13 16 32 16 41v18l98-5c53-4 107-8 118-11l22-4 6-34 7-35 26-21 26-20h74l26 26 27 26 6 34 6 33 57 11c31 6 82 18 113 27l57 15 44-21c51-25 75-26 121-7l33 14 21 26c11 15 24 40 27 56l6 29 60 37 59 36 36-31 35-31h61l29 29 29 29v39l-1 38-14 25-14 25 73 75c222 227 334 470 371 803l6 57h22c12 0 37 9 55 20l32 20v139l-22 15-22 16h-72l-12 83c-7 45-15 94-18 109l-6 27 34 14 34 14 26 32 27 31 6 43 7 43-17 42-17 42-34 30-35 30-22 1c-12 1-24 1-27 1-3 1-24-2-47-6l-41-6-21 36c-27 46-27 50 9 91l30 34v29c0 42-17 74-50 93-33 20-52 21-95 6l-32-12-36 39-36 39 22 8c39 14 42 41 9 80-21 23-39 21-65-7l-22-24-65 48c-36 27-69 54-75 61-5 6-27 29-47 50l-37 38-48 7-48 7-55 27c-85 43-191 78-298 99l-97 20-115 5-115 4-80-8z"/></g><g fill="#22b4e2" transform="matrix(.1 0 0 -.1 0 300)"><path d="M1375 2910c-110-12-224-36-309-67-79-29-248-111-308-150l-38-26-19 17-19 17-34 5-35 6-31-16-32-16-15-30c-18-35-19-53-4-94l11-31-45-45-45-45-55 3-55 4-37-34-36-33-6-40-5-40 26-37 25-37-37-76-37-75-20 6c-11 4-41 9-66 11l-46 5-26-32-27-32v-18c0-11 5-31 12-45l12-26 27-15c16-8 40-14 55-14h26l-5-14c-3-8-9-31-13-51l-7-37-14-5c-7-3-20-18-28-34l-15-28v-67l14-19 14-20 1-152 1-151-37-7-36-6-29-29-28-28v-93l16-25c21-32 64-54 104-54h31l13-32 14-33-3-70c-1-38-6-84-10-101l-7-30 16-37 15-37 33-20 33-21 40 5 41 5 51-68 52-67-14-41-14-41 11-38 10-39 34-32 35-32 37-7 37-7 46 17 47 16 84-56c79-53 233-134 255-134h10l6-46 5-46 19-27 20-26 37-12 37-13 33 14 33 14 17 23c9 13 16 32 16 41v18l98-5c53-4 107-8 118-11l22-4 6-34 7-35 26-21 26-20h74l26 26 27 26 6 34 6 33 57 11c31 6 82 18 113 27l57 15 44-21c51-25 75-26 121-7l33 14 21 26c11 15 24 40 27 56l6 29 60 37 59 36 36-31 35-31h61l29 29 29 29v39l-1 38-14 25-14 25 73 75c222 227 334 470 371 803l6 57h22c12 0 37 9 55 20l32 20v139l-22 15-22 16h-72l-12 83c-7 45-15 94-18 109l-6 27 34 14 34 14 26 32 27 31 6 43 7 43-17 42-17 42-34 30-35 30-22 1c-12 1-24 1-27 1-3 1-24-2-47-6l-41-6-21 36c-27 46-27 50 9 91l30 34v29c0 42-17 74-50 93-33 20-52 21-95 6l-32-12-36 39-36 39 22 8c39 14 42 41 9 80-21 23-39 21-65-7l-22-24-65 48c-36 27-69 54-75 61-5 6-27 29-47 50l-37 38-48 7-48 7-55 27c-85 43-191 78-298 99l-97 20-115 5-115 4-80-8zm292-76 31-5 6-15 6-15-44 6-44 7-29-6-29-7-69-63c-39-35-71-63-73-61-1 1 30 34 70 73l73 72h-104l-5-9-6-9-18 5-18 4-13-15c-8-9-18-16-23-16h-10l12 15 12 15h-32l-12-20c-7-11-19-20-27-20h-13l12 15 12 15h-18c-11 0-39-10-64-22s-51-20-58-19c-8 1-23-5-33-15l-19-17v-77h30l11-27 11-28 5 12 5 13 21-15 21-15h62l24 16 25 16-27-25-26-24-56-7c-31-4-58-12-61-17-4-5-13-9-22-9-8 0-28-11-45-25-16-14-36-25-44-25s-14-4-14-10c0-15-21-12-40 5l-17 16-27-10-26-11-1-12c-1-7-2-24-3-38l-1-24-27-15-27-15-7 7-8 7 29 30 29 30h-23l5 29 6 28-16 31c-16 32-53 59-64 47-3-3 5-25 18-49l23-44-12-29c-7-16-11-34-10-39 2-5-1-20-5-33l-8-23 15-15 15-15 46 31 46 32v-26l-29-15c-16-8-45-24-65-34l-36-20v-13c0-15-5-15-49-7l-31 6 7 12c3 6-3 3-14-6-21-20-43-24-43-9 0 6 10 17 22 25 12 9 19 16 14 16-4 0-21-11-38-25l-30-25h-46l-6 15-5 15h19v19c0 10-9 30-21 45l-20 26h-38l-8-14c-4-8-21-18-37-22l-28-7 10 20c6 11 43 49 81 86 39 37 71 70 71 75s-14 18-31 31l-30 22 3 22 3 22 26 3 27 3 22-30c12-17 27-31 33-31 7 0 36 16 65 35 69 47 229 126 322 159 175 63 403 87 577 60zm148-46 20-9-39 5c-22 3-44 10-50 16l-11 11 30-7c17-4 39-11 50-16zm-543-73c-17-14-35-25-41-25h-10l6 18c9 23 23 32 51 32h24l-30-25zm898-40c0-12-24-55-32-55-11 0-10 17 2 41 9 17 30 27 30 14zm-1042-206c-2-6-7-10-12-9s-12-2-15-7c-3-4-17-14-31-21l-25-13 35 31c35 31 55 39 48 19zm-133-9c-3-5-10-10-16-10-5 0-9 5-9 10 0 6 7 10 16 10h15l-6-10zm1369-69-39-30-4 10c-1 6 5 19 15 30l17 19h51l-40-29zm-1940-32 26-20 1-17 1-17 4 12 5 12 15-6 14-5-6-9c-7-12-42-11-104 2l-50 11v13c0 15 37 45 56 45 6 0 23-9 38-21zm2246 4c0-5-16-18-35-30l-34-23-6 9-5 9 26 21c27 21 54 28 54 14zm-2120-49v-14h-14c-8 0-18 5-22 11l-7 11 14 8c16 11 29 4 29-16zm1114-84c140-44 261-141 326-262l31-58-15 6c-9 3-16 11-16 18 0 6-18 39-40 74l-39 62h-39l-49 45c-26 25-52 45-58 45-5 0-23 7-39 15s-53 22-83 31l-54 16h-155l-55-16c-30-9-72-18-93-21l-40-5 10 10c6 6 41 21 79 34l70 25h96l97 1 66-20zm-936-42-5-13-61-3-62-3v9c0 18 15 22 73 22h59l-4-12zm217-28 60-40h-38l-35 26-34 27-79-2-79-2 6 14 5 15 67 1 67 1 60-40zm1705 30v-10h-23c-13 0-28-5-33-10l-10-10-30 10-30 11-24-5c-14-2-40-5-58-5l-33-1 3-17 3-18-35 1h-35v29l-55 7c-30 3-79 6-108 7l-54 1-29-17-29-17v-26h-63l59 39 59 39 263 1 262 1v-10zm-430-50c0-5-3-10-7-11-5 0-18-2-30-5l-23-4v30h60v-10zm-1882-66c-16-38-15-37-27-30l-10 7 16 34 17 35 8-8 9-9-13-29zm2182 21c0-8-4-15-10-15-5 0-10 7-10 15s5 15 10 15c6 0 10-7 10-15zm324-11 16-6-6-9c-3-5-14-9-26-9h-20l11-13 11-14-7-6c-11-12-23-8-23 8 0 21-4 20-61-20-28-19-58-35-66-35h-15l4 10c5 16 131 100 149 100 10 0 24-3 33-6zm-396-33c-7-12-16-21-21-21-4 0 0 11 9 25 20 30 31 26 12-4zm-2078-1c0-5-5-10-11-10h-10l6 10c3 6 8 10 11 10 2 0 4-4 4-10zm2034-9 6-9-23-5c-12-3-61-9-109-13l-87-7-5-13-5-14h-20c-11 0-26 3-35 6l-16 6 6 9c7 12-3 11-25-2l-18-12-17 10-18 10 25 16 25 16 119 4c65 1 135 4 155 5l37 2 5-9zm-1451-18 32-16-12-4c-6-2-28 0-47 6l-36 9-27-7-28-8 3-12 2-11h-27l-28 1 18 13 18 14-11 7c-6 4-56 7-111 7h-99l-6 9-5 9h332l32-17zm-789-2 6-9-22-5c-25-7-33-3-23 12 8 13 32 14 39 2zm157-16c0-5-9-11-21-13l-20-3v9c0 5 3 12 7 16 10 9 34 3 34-9zm696-79c-13-24-30-68-37-98-7-29-16-60-21-68l-8-15-1 25c0 36 34 139 61 184l23 39 4-11c2-7-7-32-21-56zm-317-62c0-10-39 22-44 36-3 8-9 22-12 30-4 8 7-2 25-24 17-21 31-40 31-42zm-414 32-14-11-6-38-7-38-12 4-12 4 3 24c2 13 10 39 18 58l14 33 15-12 15-13-14-11zm99 15-6-11-37 1-37 1 33 8c18 4 36 10 39 14 9 9 16-1 8-13zm1016-88 74-38-3-26-2-26 15-13c18-15 20-30 4-30-6 0-23-8-37-18-15-10-61-31-102-47s-78-34-82-40c-4-5-16-11-28-11l-20-1 1 26c1 14-2 34-6 44l-7 17 29-17 30-16 51 16c28 10 67 27 86 38l36 21v14c0 7-9 18-20 24l-20 11v28l-14-5-14-5-51 17-51 16-15-6-15-5v19h-47l-15-17c-9-10-20-31-26-48l-10-30-1 28c-1 15 6 41 14 57l15 29 28 15 27 15 51 1h51l74-37zm439-5 30-30-1-31-2-32-4 27-4 28-26 20-26 20h-119l5-19 4-18-48-22c-27-11-51-21-53-21s-4 15-4 34v34l47 21c49 22 87 28 139 22l33-3 29-30zm-1060-52c0-6-13 3-30 19l-30 29v15l1 16 29-35c16-19 30-39 30-44zm1690-78 13-78-6-122-5-123-22-75c-78-271-251-481-505-610l-93-47-82-22c-45-13-85-20-88-17-12 12 16 27 89 47 92 25 173 64 270 127l74 49 75 79c123 129 200 264 241 419l21 80 5 110 4 110-14 80c-8 44-12 84-9 89l5 9 7-14c5-8 14-49 20-91zm-2217 86 6-7-37-18c-44-23-42-23-42-4 0 24 55 46 73 29zm1587-60 9-38-10-19-11-19-31-13c-18-7-63-16-101-20l-69-7 7 10 6 11-34 34c-19 19-32 37-29 40 2 3 32-8 66-24l62-29h65l20 20 20 20v33c0 32 8 52 18 43 2-3 8-21 12-42zm-280-4-24-18-15 6-16 7 22 3c12 2 27 10 34 18 6 8 15 12 18 9 3-4-5-15-19-25zm498-38c-2-8-9-17-15-20l-13-4v51l15-6 16-6-3-15zm339-174-5-113-21-80-21-80-40-80-40-80-55-70c-30-39-88-98-128-133l-72-62-75-39c-87-45-198-87-207-78-3 4 1 17 9 29l15 23 69 29c38 15 106 52 150 82l81 54 59 62c107 116 177 252 209 406l15 73 1 77 2 77 4-26 4-27 20 5 20 6-5 13c-6 15 2 44 11 44 3 0 3-51 0-112zm-445-80-40-83 9-9c5-6 9-16 9-24v-13l-11 6-10 7-17-15c-9-8-28-18-42-22s-36-15-50-25c-70-49-223-98-314-102l-34-1 5-12 4-12-41 3c-23 2-46 6-52 10l-10 7 13 8 14 8-12 12c-6 6-24 12-40 13l-30 1-17 18c-10 10-34 26-55 36-20 11-49 33-65 50-17 17-36 31-43 31s-13 5-13 11v10l-10-6-10-6v22l-11-7-11-7 6 19 6 19-9 13c-4 8-12 12-17 10l-9-3v27l-1 28-19 14-20 15 12 12 11 11 27-51 26-52 58-57 59-58 61-32c33-18 84-40 113-48l52-16h164l58 17c64 18 126 51 189 99 54 41 67 59 112 143 21 39 39 70 42 68 2-2-15-41-37-87zM405 1274l-17-26-33-14-34-14h-48c-26 1-70 7-98 14l-50 14-28-15-29-14 4 18 3 18 29 3c16 2 50-2 75-9s66-12 91-12l46 1 33 17 33 16 16 30 17 29 3-16 4-15-17-25zm739-21c4-5 13-8 19-8h12l3-35 2-35-15 27-15 27-20 6-20 6 5 10c7 11 19 12 29 2zm116-74v-10l-10 6-11 7-14-12-15-12v9c0 15 11 23 32 23h18v-11zm490-121c-16-36-30-70-30-75 0-6-6-16-14-22-7-6-28-50-47-99-18-48-40-98-48-112l-16-24 13 7 12 8v-10c0-6 7-11 15-11h15v-13c0-20-22-37-48-37h-24l-19-22c-10-13-18-28-19-34 0-6-7-17-15-24l-16-13-11 11-12 12h31l75 158c42 86 99 208 129 271 29 62 55 109 57 103 1-5-11-39-28-74zm860 34c0-5-16-16-35-25s-35-21-35-27c0-5-4-10-10-10-17 0-11 29 10 50l20 20h25c14 0 25-4 25-8zM1309 985c0-5-6 1-14 15s-14 30-14 35c0 6 6-1 14-15s14-29 14-35zm666-14c-30-30-141-101-158-101h-8l5 9c3 5 29 21 58 36s69 41 88 56c45 37 53 37 15 0zm-238-13-5-13-1 19c-1 11 2 17 5 13 3-3 4-12 1-19zM936 776c29-20 89-54 135-75l84-39 85-22c47-12 89-26 94-31l10-9h-80l-74 25c-140 48-284 139-380 241l-45 48 60-51c33-27 83-66 111-87zm1474 54c0-5-4-10-10-10-5 0-10 5-10 10 0 6 5 10 10 10 6 0 10-4 10-10zm-250-127c-8-3-27-15-42-25-30-21-34-18-18 13l11 19 32-1 32-1-15-5zm-696-39 6-15-10 6c-6 3-10 10-10 16 0 14 7 11 14-7zm-688-2c-10-16-286-134-286-122 0 15 52 50 89 60 20 5 68 23 106 40 39 16 76 30 83 30h13l-5-8zm229-171c-3-6-11-11-17-11h-10l12 15c14 17 26 13 15-4zm90-70c-3-6-16-16-28-22l-22-11 25 25c25 24 38 28 25 8zm895-96c0-8-4-15-10-15-5 0-10 7-10 15s5 15 10 15c6 0 10-7 10-15zM960 2645l-12-14 4-18 3-18 22-3 21-3 16 22 15 23-11 13c-14 17-43 17-58-2zm-189-91-21-15v-23c0-12 6-30 13-41l14-18 27 7 27 7 11 25 12 26-10 15c-5 9-19 20-31 24l-21 8-21-15zm279 0v-15l10 6c6 3 10 10 10 16 0 5-4 9-10 9-5 0-10-7-10-16zm-400-119-12-15 12-15c7-8 20-15 30-15h18l6 16c3 9 6 22 6 30v14h-48l-12-15zm715-645-6-10h10c5 0 13 5 16 10l6 10h-10c-5 0-13-4-16-10z"/></g><g fill="#7b44b6" transform="matrix(.1 0 0 -.1 0 300)"><path d="M1375 2910c-110-12-224-36-309-67-79-29-248-111-308-150l-38-26-19 17-19 17-34 5-35 6-31-16-32-16-15-30c-18-35-19-53-4-94l11-31-45-45-45-45-55 3-55 4-37-34-36-33-6-40-5-40 26-37 25-37-37-76-37-75-20 6c-11 4-41 9-66 11l-46 5-26-32-27-32v-18c0-11 5-31 12-45l12-26 27-15c16-8 40-14 55-14h26l-5-14c-3-8-9-31-13-51l-7-37-14-5c-7-3-20-18-28-34l-15-28v-67l14-19 14-20 1-152 1-151-37-7-36-6-29-29-28-28v-93l16-25c21-32 64-54 104-54h31l13-32 14-33-3-70c-1-38-6-84-10-101l-7-30 16-37 15-37 33-20 33-21 40 5 41 5 51-68 52-67-14-41-14-41 11-38 10-39 34-32 35-32 37-7 37-7 46 17 47 16 84-56c79-53 233-134 255-134h10l6-46 5-46 19-27 20-26 37-12 37-13 33 14 33 14 17 23c9 13 16 32 16 41v18l98-5c53-4 107-8 118-11l22-4 6-34 7-35 26-21 26-20h74l26 26 27 26 6 34 6 33 57 11c31 6 82 18 113 27l57 15 44-21c51-25 75-26 121-7l33 14 21 26c11 15 24 40 27 56l6 29 60 37 59 36 36-31 35-31h61l29 29 29 29v39l-1 38-14 25-14 25 73 75c222 227 334 470 371 803l6 57h22c12 0 37 9 55 20l32 20v139l-22 15-22 16h-72l-12 83c-7 45-15 94-18 109l-6 27 34 14 34 14 26 32 27 31 6 43 7 43-17 42-17 42-34 30-35 30-22 1c-12 1-24 1-27 1-3 1-24-2-47-6l-41-6-21 36c-27 46-27 50 9 91l30 34v29c0 42-17 74-50 93-33 20-52 21-95 6l-32-12-36 39-36 39 22 8c39 14 42 41 9 80-21 23-39 21-65-7l-22-24-65 48c-36 27-69 54-75 61-5 6-27 29-47 50l-37 38-48 7-48 7-55 27c-85 43-191 78-298 99l-97 20-115 5-115 4-80-8zm377-91c54-11 130-31 170-45 71-26 188-80 188-88 0-2-7-17-15-32-19-37-19-53 1-100l17-39-2-37-1-38h8c4 0 13 5 20 12l12 12v-65l15-5 15-6 76 73c41 41 79 75 84 77 12 4 120-97 120-112v-11l-8 12c-4 6-20 16-35 22l-27 11-30-6-30-6-24-25c-13-13-27-35-30-49l-7-25 17-34c9-19 21-36 28-36 24-3-52-17-96-18l-48-1-59 48c-33 26-99 69-148 94l-88 46-90 26c-49 14-121 30-159 35-37 5-71 13-75 16l-6 7 28 24c15 13 35 24 44 24h16l96 92c53 51 97 96 99 99 1 3-16 9-39 12l-42 6-34-26-33-25v-28l24 15 24 16 6-9 6-9-79-71c-43-39-90-77-105-83l-26-12v-37h-38l-7 17-6 18-19-25-20-25v11c0 6 34 43 75 83 41 39 75 73 75 76 0 10-22 4-36-10-9-8-20-15-25-15-19 0-8 20 28 49l37 31 10-10c16-16 22-13 72 34l48 44-52 7-51 7-29-6-28-7-69-63c-39-35-71-63-73-61-1 1 30 34 70 73l73 72h-104l-5-9-6-9-18 5-18 4-13-15c-8-9-18-16-23-16h-10l12 15 12 15h-32l-12-20c-7-11-19-20-27-20h-13l12 15 12 15h-18c-11 0-39-10-64-22s-51-20-58-19c-8 1-23-5-33-15l-19-17v-77h30l11-27 11-28 5 12 5 13 21-15 21-15h62l24 16 25 16-27-25-26-24-56-7c-31-4-58-12-61-17-4-5-13-9-22-9-8 0-28-11-45-25-16-14-36-25-44-25s-14-4-14-10c0-15-21-12-40 5l-17 16-27-10-26-11-1-12c-1-7-2-24-3-38l-1-24-27-15-27-15-7 7-8 7 29 30 29 30h-23l5 29 6 28-16 31c-16 32-53 59-64 47-3-3 5-25 18-49l23-44-12-29c-7-16-11-34-10-39 2-5-1-20-5-33l-8-23 15-15 15-15 46 31 46 32v-26l-29-15c-16-8-45-24-65-34l-36-20v-13c0-15-5-15-49-7l-31 6 7 12c3 6-3 3-14-6-21-20-43-24-43-9 0 6 10 17 22 25 12 9 19 16 14 16-4 0-21-11-38-25l-30-25h-46l-6 15-5 15h19v19c0 10-9 30-21 45l-20 26h-38l-8-14c-4-8-21-18-37-22l-28-7 10 20c6 11 43 49 81 86 39 37 71 70 71 75s-14 18-31 31l-30 22 3 22 3 22 26 3 27 3 22-30c12-17 27-31 33-31 7 0 36 16 65 35 28 20 96 57 149 84 172 85 303 124 473 140l85 8 90-4c50-3 134-14 187-24zm-480-104c-17-14-35-25-41-25h-10l6 18c9 23 23 32 51 32h24l-30-25zm944-50 25-25-6-21c-4-12-15-29-25-39s-27-31-36-46l-18-27-13 49c-7 27-13 59-13 72v22l20 20c26 26 36 25 66-5zm-1088-196c-2-6-7-10-12-9s-12-2-15-7c-3-4-17-14-31-21l-25-13 35 31c35 31 55 39 48 19zm-133-9c-3-5-10-10-16-10-5 0-9 5-9 10 0 6 7 10 16 10h15l-6-10zm1369-69-39-30-4 10c-1 6 5 19 15 30l17 19h51l-40-29zm-1940-32 26-20 1-17 1-17 4 12 5 12 15-6 14-5-6-9c-7-12-42-11-104 2l-50 11v13c0 15 37 45 56 45 6 0 23-9 38-21zm2246 3c0-5-12-15-26-23-14-7-36-26-49-41l-24-28h-61v9c0 13 25 31 49 36 12 2 36 16 52 30 30 25 59 33 59 17zm-157-17c-3-9-8-14-10-11-3 3-2 9 2 15 9 16 15 13 8-4zm-1963-31v-14h-14c-8 0-18 5-22 11l-7 11 14 8c16 11 29 4 29-16zm1114-84c140-44 261-141 326-262l31-58-15 6c-9 3-16 11-16 18 0 6-18 39-40 74l-39 62h-39l-49 45c-26 25-52 45-58 45-5 0-23 7-39 15s-53 22-83 31l-54 16h-155l-55-16c-30-9-72-18-93-21l-40-5 10 10c6 6 41 21 79 34l70 25h96l97 1 66-20zm-719-70 60-40h-38l-35 26-34 27-77-2-76-2-22-21-23-21v9c0 6 5 15 12 22l12 12H594l-40-70c-21-38-42-70-46-70s-15 14-23 30l-16 31 7 11 7 11-10-6-11-7-16 25-16 25h99l6 10 7 11-69-3-68-3 3-12c4-21-5-15-28 17l-21 30h526l60-40zm1705 30v-10h-49l-6-11-7-10-14 5c-21 8-17-4 8-25l21-19-29-1-29-1 18-5c9-2 17-9 17-14v-9h-48l-6 15-5 15h-31v-50l38-1 37-2-28-4-29-4 16-12 16-12-81-115c-86-122-117-160-79-97 31 53 19 57-21 7l-33-40-9 9-9 9 41 79c23 43 41 82 41 86s-15 7-34 7h-35l-15 15c-8 8-22 15-30 15h-16v-21l13 7 12 7-11-12-12-13-18 4-19 4 3 12 2 12h-38l-6-15-5-15h-20c-11 0-26 3-35 6l-16 6 6 9c7 12-3 11-25-2l-18-12-17 10-18 10 24 15 23 15 156 6 157 5 10-10 10-10 19 29c11 15 23 34 27 41l7 12-28 12c-15 6-44 12-63 13l-35 1v29l-55 7c-30 3-79 6-108 7l-54 1-29-17-29-17v-26h-63l59 39 59 39 263 1 262 1v-10zm-430-50c0-5-3-10-7-11-5 0-18-2-30-5l-23-4v30h60v-10zm-1882-66c-16-38-15-37-27-30l-10 7 16 34 17 35 8-8 9-9-13-29zm2182 21c0-8-4-15-10-15-5 0-10 7-10 15s5 15 10 15c6 0 10-7 10-15zm324-11 16-6-6-9c-3-5-14-9-26-9h-20l11-13 11-14-7-6c-11-12-23-8-23 8 0 8-3 15-6 15-8 0-95-60-126-88l-26-24-26 18c-32 24-29 36 13 39l33 3 66 46c65 45 85 52 116 40zm-2474-34c0-5-5-10-11-10h-10l6 10c3 6 8 10 11 10 2 0 4-4 4-10zm583-27 32-16-12-4c-6-2-28 0-47 6l-36 9-27-7-28-8 3-12 2-11h-27l-28 1 18 13 18 14-8 5c-4 2-43 5-86 6l-79 2-11-9-12-9-19 18-19 19h334l32-17zm-789-2 6-9-22-5c-25-7-33-3-23 12 8 13 32 14 39 2zm157-16c0-5-9-11-21-13l-20-3v9c0 5 3 12 7 16 10 9 34 3 34-9zm696-79c-13-24-30-68-37-98-7-29-16-60-21-68l-8-15-1 25c0 36 34 139 61 184l23 39 4-11c2-7-7-32-21-56zm-189-213 83-103h-24l7-42 7-42-19 17c-28 25-35 21-16-10l17-28-54 59-54 59-6 33-6 33 10-6 10-6-8 19c-4 10-7 30-6 43l1 23-29 33-29 33-12-11-13-12 7 27 6 27-17 13c-17 12-43 51-43 63 0 6 77-85 188-222zm-542 183-14-11-6-38-7-38-12 4-12 4 3 24c2 13 10 39 18 58l14 33 15-12 15-13-14-11zm99 15-6-11-37 1-37 1 33 8c18 4 36 10 39 14 9 9 16-1 8-13zm1664-90c6-19 11-54 11-78v-44l-19 18-19 18-2 40c-2 22-2 53-1 70l1 29 9-9c4-6 13-25 20-44zm-662 10c34-17 75-40 92-52l29-22 29 20c15 11 54 32 85 46l57 25 33 2c18 1 47 2 65 1l31-1 31-31 31-31-1-31-2-32-4 27-4 28-26 20-26 20h-119l5-19 4-18-48-22c-61-26-63-26-56 2l6 22-29-32-30-33h-51l-9 23-9 22v-16c-1-9 6-22 14-29 18-15 20-30 4-30-6 0-23-8-37-18-15-10-61-31-102-47s-78-34-82-40c-4-5-16-11-28-11l-20-1 1 26c1 14-2 34-6 44l-7 17 29-17 30-16 51 16c28 10 67 27 86 38l36 21v14c0 7-9 18-20 24l-20 11v28l-14-5-14-5-51 17-51 16-15-6-15-5v19h-47l-15-17c-9-10-20-31-26-48l-10-30-1 28c-1 15 6 41 14 57l15 29 28 15 27 15 50 1h50l62-29zm1297-31c-34-15-65-33-68-39-9-15-5-14 56 8 29 11 63 22 76 26l22 6v-31l-34-14c-18-7-43-24-55-37l-21-23v-64l32-32c17-18 42-36 55-41l24-9h73c40 0 76-3 79-7l7-6-11-14-11-13h-144l-27-12c-35-17-34-28 2-28 17 0 32-4 36-9l5-10-46-3-47-3-4-11-3-10 37-11 38-10-42-2-42-1-6-10-6-10 25-10c14-5 26-11 26-13 0-7-149 1-160 8-5 3-10 14-10 25v18l-14 5-14 5-11-11-11-11-1 45-2 44-7-55c-4-30-10-72-14-92l-7-37 20-20 19-19-14-21c-18-26-34-27-34-3v17l-21-44-20-45 6-15 6-15-7 7-7 7-35-62c-101-181-237-312-424-407l-96-48-82-22c-45-13-85-20-88-17-12 12 16 27 89 47 92 25 173 64 270 127l74 49 75 79c123 129 200 264 241 419l21 80 5 110 4 110-14 80-15 80 13 14 13 13 33-12 34-12 90 25c50 14 99 25 110 25l20 1-61-29zm-719-65 6-55-16-75-17-76-32-44c-17-24-44-61-61-83-33-43-130-117-182-139l-34-14-78-6-78-6-51 13c-29 6-52 15-52 19s14 20 30 34c17 15 30 31 30 35s11 14 25 22c14 9 55 45 92 81 38 36 75 69 83 74l14 9 79 2 78 3 42 20 42 21 25 37 25 37 1 70c2 89 2 88 13 82 5-3 12-30 16-61zm-1712 39 6-7-37-18c-44-23-42-23-42-4 0 24 55 46 73 29zm1590-71 6-31-20-26-20-26 6-10 6-10 10 5c5 4 9 4 9 1 0-7-56-36-68-36-6 0-13 7-16 16l-6 15 12-7 11-7-7 12-8 12-65-7-66-6 7 10 6 11-34 34c-19 19-32 37-29 40 2 3 32-8 66-24l62-29h65l20 20 20 20v33c0 19 3 37 7 41l7 7 7-13c3-7 9-27 12-45zm-283 7-24-18-15 6-16 7 22 3c12 2 27 10 34 18 6 8 15 12 18 9 3-4-5-15-19-25zm702-2-12-12v10c0 6 3 14 7 17 3 4 9 5 12 2 2-3-1-11-7-17zm-203-66 1-47-22-65c-27-84-65-159-84-167-8-3-14-10-13-17 1-6-2-21-6-33l-7-23-10 6-9 6-17-15c-9-7-25-17-35-20l-18-7 15-16 16-16-45-82c-25-46-45-86-45-90 0-3 7-6 16-6h16l-4-12c-3-7-9-13-14-13-16 0-74-46-74-58v-12l11 15 10 15-6-40-6-40-9-3c-6-2-10-13-10-24v-21l-17-13c-10-7-18-16-18-21-3-35-20-57-46-55-3 0-11-8-18-20l-12-20 10 7 11 6v-10c0-6 7-11 15-11h15v-13c0-7-5-18-12-25l-12-12h-54l-6-16-6-16 14 5 15 6-11-25-12-25 14-9 14-9-14-28-13-28-4 17c-7 29-23 21-39-19l-16-37-10 19c-6 11-22 32-36 48l-26 27h11c7 0 14 8 18 19l6 19-12 26c-7 14-16 26-21 26-9 0-30 45-33 73-4 37 15 13 51-63l38-80h23l61 128c199 417 211 442 197 442-2 0-22-9-43-20-22-11-70-27-109-35l-70-15-49 5c-27 2-49 5-49 6 0 0-17 3-38 5-21 1-45 8-52 14l-14 12-11-7-10-6-7 16-6 17 14 10 14 9-23-6-22-6-6 15-6 16h-33l-62 55c-33 30-66 55-72 55s-11 5-11 11v10l-10-6-10-6v22l-11-7-11-7 6 19 6 19-9 13c-4 8-12 13-17 13l-9-1v25l-1 25-19 14-20 15 12 12 11 11 27-51 26-52 58-57 59-58 61-32c33-18 84-40 113-48l52-16h164l58 17c81 23 200 95 242 145 52 63 124 227 137 312l7 47 13-5 12-5 2-47zm333-36 11 7-6-114-5-114-21-80-21-80-40-80-40-80-55-70c-30-39-88-98-128-133l-72-62-75-39c-87-45-198-87-207-78-3 4 1 17 9 29l15 23 69 29c38 15 106 52 150 82l81 54 59 62c107 116 177 252 209 406l15 73v151l17-13 17-14-8 13-8 13 7 17 7 17 5-13 5-12 10 6zM950 1451v-13l-13 10-13 11-1 48-2 48 15-45c7-25 14-51 14-59zm1273-3c-22-189-114-371-238-473-46-38-153-105-166-105-11 0 69 167 160 335 80 149 81 151 124 178l27 17v-38c0-21-7-60-16-86s-14-49-11-52c7-8 38 101 46 160l6 49 14 5 13 4-7-43c-4-24-15-72-25-106-9-35-16-63-14-63 10 0 35 80 50 153 19 100 21 107 33 107h9l-5-42zM405 1274l-17-26-33-14-34-14h-48c-26 1-70 7-98 14l-50 14-28-15-29-14 4 18 3 18 29 3c16 2 50-2 75-9s66-12 91-12l46 1 33 17 33 16 16 30 17 29 3-16 4-15-17-25zm2328-11c-7-2-21-2-30 0l-18 5h60l-12-5zm-1589-10c4-5 13-8 19-8h12l3-35 2-35-15 27-15 27-20 6-20 6 5 10c7 11 19 12 29 2zm1541-33c-3-5-11-10-16-10h-10l6 10c3 6 11 10 16 10h10l-6-10zm-1425-41v-10l-10 6-11 7-14-12-15-12v9c0 15 11 23 32 23h18v-11zm1207-13c-9-24-79-117-84-112-5 4 77 126 85 126 2 0 2-6-1-14zm-617-45c-28-56-35-52-8 4 12 24 23 43 26 41 2-2-6-22-18-45zm-1336 10 6-9-14-11c-15-13-27-5-19 15 6 16 19 18 27 5zm761-67c20-42 34-79 31-81-2-2-7 5-11 16l-6 21h-24l-23 48c-24 50-28 72-13 72 5 0 26-34 46-76zm1335 27c0-5-10-13-22-16-11-4-32-19-45-33l-23-25v43l20 20 20 20h50v-9zm-980-48c0-1-20-42-44-91-24-50-48-104-54-121l-11-31h-37l-13 38c-8 20-30 75-50 122l-37 85h123c68 0 123 0 123-2zm-527-54 6-21 18 6 19 6 22-46c13-26 21-49 18-51-8-8-73 27-112 61l-38 33 15 16c8 9 21 16 30 17h17l5-21zM936 776c29-20 89-54 135-75l84-39 85-22c47-12 89-26 94-31l10-9h-82l-85 30c-143 50-259 124-357 226l-55 58 60-51c33-27 83-66 111-87zm1474 54c0-5-4-10-10-10-5 0-10 5-10 10 0 6 5 10 10 10 6 0 10-4 10-10zm-250-127c-8-3-27-15-42-25-30-21-34-18-18 13l11 19 32-1 32-1-15-5zm-170-48c-7-8-17-15-23-15h-10l18 20c21 23 35 19 15-5zM780 665c0-2-19-14-42-26-24-12-70-48-103-79-65-62-93-80-124-80h-21v69l26 20c15 12 43 25 63 31 20 5 68 23 106 40 67 28 95 36 95 25zm1145-95c-10-11-20-18-23-15-7 6 18 35 31 35h10l-18-20zm-920-79c-3-6-11-11-17-11h-10l12 15c14 17 26 13 15-4zm493-46c-3-3-9 2-12 12l-7 18 12-12c7-7 10-15 7-18zm497-63 70-38-2-29-2-30-18-13-18-13-25 3-25 3-24 50-43 86c-10 20-18 42-18 49v12l18-21c9-11 49-38 87-59zm-915 23-23-25h-31c-17 0-38 5-46 10l-15 10 32-6 31-6 31 18c17 10 31 23 31 28v9l7-6 6-7-23-25zm85-92-7-68-19-42-18-43h-33l7 37c7 39 64 183 72 183 3 0 2-30-2-67zM960 2645l-12-14 4-18 3-18 22-3 21-3 16 22 15 23-11 13c-14 17-43 17-58-2zm1001-41c-24-31-26-47-8-62l13-11 22 15c12 8 29 28 37 43l14 28-6 7c-4 3-17 6-29 6h-23l-20-26zm25-12-18-17 12 23c6 13 14 21 18 18 3-4-2-14-12-24zm-188 17-18-10v-48l16-9 17-9 19 5 18 4 7 26 6 25-18 14c-22 15-25 16-47 2zm-1027-55-21-15v-23c0-12 6-30 13-41l14-18 27 7 27 7 11 25 12 26-10 15c-5 9-19 20-31 24l-21 8-21-15zm279 0v-15l10 6c6 3 10 10 10 16 0 5-4 9-10 9-5 0-10-7-10-16zm574-5-7-11 14-9c18-11 70-11 87-1l13 9-26 11c-14 7-37 12-50 12h-24l-7-11zm-974-114-12-15 12-15c7-8 20-15 30-15h18l6 16c3 9 6 22 6 30v14h-48l-12-15zm1621 2-13-16 4-18 4-18 13 23c7 13 11 28 9 34l-4 10-13-15zm141-279c2-6 12-12 21-14l17-2v28h-42l4-12zm13-229c-4-6-5-13-2-16 7-7 27 6 27 18s-17 12-25-2zm-1060-139-6-10h10c5 0 13 5 16 10l6 10h-10c-5 0-13-4-16-10zm1132-47c-2-4-2-70 1-145l5-138h13c7 0 18 9 24 19l10 20-1 88v88l-12 34c-12 34-31 50-40 34zm103-78-12-15h32v15c0 8-2 15-4 15s-9-7-16-15zm-4-102c-7-8 33-43 49-43h14l11 19c5 11 10 21 10 23 0 5-79 6-84 1zm-561 77c3-5 8-10 11-10 2 0 4 5 4 10 0 6-5 10-11 10h-10l6-10zm-120-310 6-10 10 5c14 9 11 15-7 15h-15l6-10zm-549-173c3-10 9-15 12-12s0 11-7 18l-12 12 7-18zm90-29 5-8 24 3c13 1 27 6 31 10l7 6-36-1-36-1 5-9zm576 120c-27-46-53-94-57-107l-7-23 13 4c15 5 103 149 114 186l6 22h-9c-6 0-33-37-60-82zm38-79c-7-11-10-23-7-25 2-2 9 7 15 21 14 30 7 33-8 4zm36 4-7-18 12 12c7 7 10 15 7 18s-9-2-12-12zm-154-100c-7-12-12-27-12-35v-12l16 22c8 12 14 28 11 35l-4 12-11-22zm34-758-19-14 16-7c10-3 24-3 33 0l16 6-4 12c-6 18-21 19-42 3z"/></g><g fill="#3056a2" transform="matrix(.1 0 0 -.1 0 300)"><path d="M1375 2910c-110-12-224-36-309-67-79-29-248-111-308-150l-38-26-19 17-19 17-34 5-35 6-31-16-32-16-15-30c-18-35-19-53-4-94l11-31-45-45-45-45-55 3-55 4-37-34-36-33-6-40-5-40 26-37 25-37-37-76-37-75-20 6c-11 4-41 9-66 11l-46 5-26-32-27-32v-18c0-11 5-31 12-45l12-26 27-15c16-8 40-14 55-14h26l-5-14c-3-8-9-31-13-51l-7-37-14-5c-7-3-20-18-28-34l-15-28v-67l14-19 14-20 1-152 1-151-37-7-36-6-29-29-28-28v-93l16-25c21-32 64-54 104-54h31l13-32 14-33-3-70c-1-38-6-84-10-101l-7-30 16-37 15-37 33-20 33-21 40 5 41 5 51-68 52-67-14-41-14-41 11-38 10-39 34-32 35-32 37-7 37-7 46 17 47 16 84-56c79-53 233-134 255-134h10l6-46 5-46 19-27 20-26 37-12 37-13 33 14 33 14 17 23c9 13 16 32 16 41v18l98-5c53-4 107-8 118-11l22-4 6-34 7-35 26-21 26-20h74l26 26 27 26 6 34 6 33 57 11c31 6 82 18 113 27l57 15 44-21c51-25 75-26 121-7l33 14 21 26c11 15 24 40 27 56l6 29 60 37 59 36 36-31 35-31h61l29 29 29 29v39l-1 38-14 25-14 25 73 75c222 227 334 470 371 803l6 57h22c12 0 37 9 55 20l32 20v139l-22 15-22 16h-72l-12 83c-7 45-15 94-18 109l-6 27 34 14 34 14 26 32 27 31 6 43 7 43-17 42-17 42-34 30-35 30-22 1c-12 1-24 1-27 1-3 1-24-2-47-6l-41-6-21 36c-27 46-27 50 9 91l30 34v29c0 42-17 74-50 93-33 20-52 21-95 6l-32-12-36 39-36 39 22 8c39 14 42 41 9 80-21 23-39 21-65-7l-22-24-65 48c-36 27-69 54-75 61-5 6-27 29-47 50l-37 38-48 7-48 7-55 27c-85 43-191 78-298 99l-97 20-115 5-115 4-80-8zm320-80 117-20 89-30c80-27 209-85 209-94 0-2-7-17-15-32-19-37-19-53 1-100l17-39-2-37-1-38h8c4 0 13 5 20 12l12 12v-65l15-5 15-6 76 73c41 41 79 75 84 77 12 4 120-97 120-112v-11l-8 12c-4 6-20 16-35 22l-27 11-30-6-30-6-24-25c-13-13-27-35-30-49l-7-25 17-34c9-19 21-36 28-36 24-3-52-17-96-18l-48-1-59 48c-33 26-99 69-148 94l-88 46-90 26c-97 28-212 49-259 47h-29l-12 16-12 17-13-24-12-23-10 17-9 16 6 19 5 18 49 23c47 22 101 61 101 74 0 10-28 7-32-4-1-5-28-16-58-24l-54-14-13 16-14 17-12-19c-7-11-22-30-34-42-28-26-29-34-3-34h20v-60h-28c-44 0-191-45-276-85s-203-112-224-137l-13-16-111 4-112 3-7 18c-4 10-8 21-8 25l-1 7 15-5 15-6-6 18c-4 11-14 27-22 37l-15 17h-19c-23 0-23-9 0-27l17-15-20 8c-11 4-35 7-52 7-18-1-33 1-33 5s36 43 81 88l81 81-32 23-31 22 3 27 3 26 24 3 23 4 33-32 34-33 68 46c98 65 214 120 334 160l104 35 90 12c50 6 97 13 105 15 8 1 49 3 92 4l76 1 117-20zm521-165 25-25-6-21c-4-12-15-29-25-39s-27-31-36-46l-18-27-13 49c-7 27-13 61-13 76v27l22 15c30 21 35 20 64-9zm204-265 11-20-11-20c-6-11-19-24-30-30l-19-10-25 12-26 11v53l12 12 12 12h65l11-20zm65 10 6-10h-10c-6 0-11 5-11 10 0 6 2 10 4 10 3 0 8-4 11-10zm19-35c-4-8-8-15-10-15s-4 7-4 15 4 15 10 15h9l-5-15zm-2060-21 38-26 33 6 34 7 15-29 15-29-42-6c-23-3-72-2-108 2l-67 7-16 13c-9 7-16 22-16 32v18l22 15c31 22 47 20 92-10zm2236 7c0-4-22-22-50-39-27-17-50-36-50-42v-10h-70v9c0 13 25 31 49 36 12 2 36 16 52 30l31 25h19c10 0 19-4 19-9zm-144-19 3-12-6 10-5 11-14-12-14-11v9c0 24 31 28 36 5zm-876-109c30-9 82-29 115-46l60-30 67-68 67-68 27-53c14-28 35-84 46-123l20-70v-180l-25-70c-14-38-50-123-81-187l-57-118h-34l-44-81c-23-44-40-83-37-86 9-9 21 5 56 67 36 64 36 59-4-33l-29-68-12 5-13 4-11-11c-6-6-11-17-11-24 0-19-34-93-42-93-5 0-8-10-8-21v-22l-17-13c-10-7-18-16-19-21 0-4-4-20-8-35l-8-28-9 6-9 5v-18c0-11 5-24 10-29l11-11-12-26-12-27h-36l-15-22c-9-12-16-29-16-36v-14l15 6 15 5v-7c-1-4-12-27-25-52l-24-45 6 33 6 32h-24l-15-36-15-35-20 23-20 23 6-30 6-30-11 15c-5 8-10 27-10 42s-4 30-10 33c-5 3-10 13-10 22s-7 21-15 27l-15 11-4 50c-2 28-7 67-11 89l-7 38 12-7c6-4 31-49 55-101s46-94 49-94 58 107 122 238c156 320 157 322 151 328-2 3-22-4-44-16-22-11-73-27-114-36l-74-16-89 6-88 5-24 16c-13 8-24 21-24 27s-3 9-6 5c-4-3-13 1-22 9l-15 15-7-11-7-11-16 7c-9 3-17 4-17 1 0-2 20-45 45-96 25-50 45-96 45-100 0-5-9-11-20-14l-20-5-5 9c-3 5-8 22-10 39-2 18-13 49-24 71-12 22-21 46-21 53v14l-19 5-19 5-21 38c-11 22-20 33-21 26 0-7 7-27 16-43 8-17 13-33 10-37-9-8-7-12-105 193l-91 190-16 80-17 80 6 70c7 79 19 120 54 185 13 25 30 57 36 73 6 15 15 27 19 27h7l-6-52c-3-29-9-58-14-63-4-6-17-44-28-85l-21-75v-55c0-75 24-168 60-240l30-60 63-63 62-63 50-28c28-16 79-37 115-47l65-19h151l70 23c90 29 150 65 206 121l44 43 34 64c70 128 80 168 79 299-1 36 0 84 0 108l2 42h-33l11 14 11 14-19 5-19 5-20 39c-27 51-119 144-178 179-26 15-76 38-113 51l-65 24-82 1h-81l-72-22c-39-11-75-18-80-15l-9 5-15-15-15-14-6 14-5 15 23 15c28 19 115 45 181 55 63 10 153 3 225-17zm-717-69c32-20 56-38 54-40s-101-4-221-4l-217-1 3-7c2-4 10-19 17-34l14-28 96-1c53-1 121 0 152 1l56 2 43-22 42-22-8-7c-5-5-24-13-43-20l-34-11H725l-67 17-67 17-7-6-6-7 23-40c12-23 26-41 31-41h9l-16 30-16 30h29l6-17c3-10 23-39 43-64 21-26 80-99 130-163l93-116h-23l7-42 7-42-19 17c-28 25-35 21-16-10l16-28-27 30c-15 17-45 49-67 73l-39 42 6 21 7 21-19-5-18-6-53 75-53 74 6 10 6 10-26 44c-37 64-72 89-44 33l10-22-25 28-26 28v42l-44 73-44 74h97l6 10 7 11-69-3-68-3 3-12c4-21-5-15-28 17l-21 30h527l57-36zm1700 17c-12-10-19-21-16-25 4-3-6-6-20-6h-27v-9c0-5 6-12 13-14l12-5-30-2-30-2 18-5c9-2 17-9 17-14v-9h-50v-9c0-5 8-12 18-14l17-5-29-1-30-1 17-12 17-13-90-127c-50-71-93-128-95-128-3 0 7 18 21 40 36 54 24 61-17 10l-33-40-9 9-9 9 21 40c12 23 21 47 21 55s9 22 20 32 20 24 20 30v13l-142-4-143-4-40 18-40 19 43 22 43 22 157-2 156-1 23 27 23 26-5 10-6 9-224-3-225-2 2 7c2 4 28 23 58 42l55 35h540l-22-18zM396 2015c26-49 59-106 74-125s37-50 48-69l20-33-10-32c-6-17-14-47-18-66l-8-35-1 28-1 28-9-5c-5-3-15-45-22-92l-13-87 12-94c7-52 17-104 23-115l11-20 12 5 13 5 11-36c6-20 10-38 8-40s-7 6-11 17c-3 12-11 21-17 21h-10l6-26c4-14 14-37 23-51l16-25 12 28 11 28 6-9c3-6 18-41 33-80 16-38 41-89 57-112 16-24 25-43 21-43s-19 16-32 35-28 35-34 35-19 7-29 17l-18 16v-31l-18-4-19-5 5 48 5 49-27 9-26 10-15-5c-20-8-27-37-20-78l7-35 27-9 26-9-37-8-38-7v-10c0-5-12 4-26 21l-25 30-35 7-35 6 11 13 11 13-11 7-12 7-11-11c-6-6-21-11-34-11h-23l-1-17v-18l-9 20c-5 11-9 26-9 33l-1 12h40v10c0 6 7 10 15 10s15 5 15 10v10h-17l-18 1 25 14 25 13 1 21 1 20-124-4c-69-3-129-2-134 1l-9 5 10 19c5 10 19 22 30 25l20 6 51-16 51-17 59 4 59 4 28 21 27 20 9 26 10 26-14 27-15 26-24 10-25 9-51-19-50-19-3-17-3-16h34c44 0 67-8 67-25v-13l-33-4c-18-2-44-1-58 2l-24 6-8 54c-4 30-6 100-5 155l3 100 35 5c48 8 60 17 75 54l13 31-5 28-5 27-30 25c-16 14-36 25-44 25-17 0-17 0 2 66l15 54h10c6 0 18-4 28-10l18-9 36 10 35 9 6 16 6 17-18 31-18 31-30 10c-16 5-30 10-32 11s4 19 13 40l15 38 9-10c5-5 31-49 57-99zm2459 69c8-4 23-20 31-36l15-29-12-16c-7-8-25-20-39-25-24-10-176-47-193-48h-8l6 10 6 10-13-5-13-4-24 20c-28 23-23 31 20 34l31 3 29 21c16 12 45 33 65 46l37 25h23c12 0 30-3 39-6zm-2673-65c11-6 34-15 50-20l29-8 20 20 20 20 25-16 24-15v-30h-12c-51 1-204 22-211 29l-9 9 6 11c9 14 32 14 58 0zm429-161c16-29 2-21-22 15l-23 32 17-14c10-8 23-23 28-33zm779-25c30-13 69-35 86-48l32-25 59 36c60 36 139 64 180 64 13 0 39-6 58-14l35-15 20-33 20-33v-112l-21-27c-11-14-35-34-52-42l-31-17-62 6-63 6-50 25c-27 14-53 31-56 36l-7 11 6 7 7 6 19-12c30-19 38-14 12 8l-24 19 8 13 8 13-27-17c-14-10-35-18-46-18s-35-9-53-20-41-20-51-20h-18l-36-35-36-35h-78l-30 16-31 15-19 42c-21 47-24 85-9 138l10 35 24 23 25 23 33 8c46 10 94 2 158-27zm1294-33c-34-15-65-33-68-39-9-15-5-14 56 8 29 11 63 22 76 26l22 6v-31l-34-14c-18-7-43-24-55-37l-21-23v-64l32-32c17-18 42-36 55-41l24-9h73c40 0 76-3 79-7l7-6-11-14-11-13h-144l-27-12c-35-17-34-28 2-28 17 0 32-4 36-9l5-10-46-3-47-3-4-11-3-10 37-11 38-10-42-2-42-1-6-10-6-10 25-10c14-5 26-11 26-13 0-7-149 1-160 8-5 3-10 14-10 25v18l-14 5-14 5-11-11-11-11-1 45-2 44-7-55c-4-30-10-72-14-92l-7-37 20-20 19-19-14-21c-18-26-34-27-34-3v17l-21-44-20-45 6-15 6-15-7 7-7 7-35-62c-20-35-63-99-96-142l-61-79-67-56c-112-95-319-200-427-217l-41-7v10c0 17 22 29 89 47 85 23 190 72 278 129l71 47 72 76c121 128 199 265 241 425l22 84v270l-12 49-12 49 14 15 15 14 33-12 34-12 90 25c50 14 99 25 110 25l20 1-61-29zm-719-65 6-55-16-75-17-76-32-44c-17-24-44-61-61-83-33-43-130-117-182-139l-34-14-78-6-78-6-51 13c-29 6-52 15-52 19s14 20 30 34c17 15 30 31 30 35s11 14 25 22c14 9 55 45 92 81 38 36 75 69 83 74l14 9 79 2 78 3 42 20 42 21 25 37 25 37 1 70c2 89 2 88 13 82 5-3 12-30 16-61zm-1706 36 14-9-7-26-7-27-23-10-23-11-22 11-21 12v16c0 9 7 25 17 35l16 18h21c12 0 27-4 35-9zm2062-44-12-12 7 18c3 10 9 15 12 12s0-11-7-18zm-59-19-12-12v10c0 6 3 14 7 17 3 4 9 5 12 2 2-3-1-11-7-17zm139-109 5-54-7-87c-11-118-32-196-83-303l-43-90-60-75c-33-41-78-91-100-111-86-78-228-159-333-190l-40-12-7 6-6 7 9 20 9 21 79 34c143 62 255 148 341 259l54 71 40 86 41 86 16 69 17 69 3 115 3 115 10-2 11-3v28l18-2 17-3 6-54zM503 1495l5-130-8 40c-9 39-14 233-6 224 2-2 6-62 9-134zm447-44v-13l-13 10-13 11-1 48-2 48 15-45c7-25 14-51 14-59zm1273-3c-23-190-114-370-241-476-47-40-163-114-169-108-9 9 225 466 251 491 6 6 23 18 39 28l27 17v-38c0-21-7-60-16-86s-14-49-11-52c7-8 38 101 46 160l6 49 14 5 13 4-7-43c-4-24-15-72-25-106-9-35-16-63-14-63 10 0 35 80 50 153 19 100 21 107 33 107h9l-5-42zM517 1328l-5-13-1 19c-1 11 2 17 5 13 3-3 4-12 1-19zm2216-65c-7-2-21-2-30 0l-18 5h60l-12-5zm-48-43c-3-5-11-10-16-10h-10l6 10c3 6 11 10 16 10h10l-6-10zm-218-54c-9-24-79-117-84-112-5 4 77 126 85 126 2 0 2-6-1-14zm-2213-30c-10-8-21-12-24-10-5 6 21 24 34 24 6 0 1-6-10-14zm260-5 6-9-14-11c-15-13-27-5-19 15 6 16 19 18 27 5zm2111-51v-14l-43-23c-24-13-47-23-53-23h-9v43l17 19 17 19 35-3 36-3v-15zm-995-37c0-1-20-42-44-91-24-50-48-104-54-121l-11-31h-37l-13 38c-8 20-30 75-50 122l-37 85h123c68 0 123 0 123-2zm-527-54 6-21 18 6 19 6 22-46c13-26 21-49 18-51-8-8-73 27-112 61l-38 33 15 16c8 9 21 16 30 17h17l5-21zm-792-56 19 5v-9c0-5-13-23-29-41l-29-33-8 7-7 8 18 20 19 21-22 15c-27 18-28 33-4 50l17 13 3-31 3-30 20 5zm119-18-12-15-22 1h-21l23 9c12 5 25 17 29 27l7 17 4-12c2-7-2-19-8-27zm1620 31c0-2-8-10-17-17l-18-14 14 18c13 16 21 21 21 13zm-695-54c-9-9-25 11-25 31l1 22 14-25c7-14 12-27 10-28zm-519-31c116-106 255-181 412-222 78-20 92-26 92-38v-8l-46 4c-94 7-200 50-328 133-99 63-222 180-190 180 3 0 30-22 60-49zm1164 45c0-2-8-10-17-17l-18-14 14 18c13 16 21 21 21 13zm-70-51c0-2-10-9-22-15l-23-11 19 15c21 17 26 19 26 11zm476-32c-10-10-19 5-10 18l8 13 4-13c2-7 1-15-2-18zm-556-12c-19-10-46-21-60-25l-25-6 50 24c58 28 87 34 35 7zm330-113c24-26 24-28 4-56l-15-22h-42l-19 17c-10 9-18 24-18 34v18l22 15c30 21 43 20 68-6zm-925 2c-3-5-10-10-16-10-5 0-9 5-9 10 0 6 7 10 16 10h15l-6-10zm40-20 6-10-15 6c-18 7-21 14-7 14 6 0 13-4 16-10zm695-25c-7-8-17-15-23-15h-10l18 20c21 23 35 19 15-5zM736 636c-32-19-81-56-110-84-56-55-84-72-115-72h-21v67l23 19 22 20 90 33c50 19 97 37 105 42s26 8 40 8h25l-59-33zm1189-66c-10-11-20-18-23-15-7 6 18 35 31 35h10l-18-20zm-600 1 5-10-10-6-10-6v15c0 18 6 21 15 7zm-305-71c0-5-9-14-20-20l-20-11v15c0 13 13 23 33 25 4 1 7-3 7-9zm500-80c0-21-16-9-28 22l-11 31 19-21c11-12 20-26 20-32zm475-38 70-38-2-29-2-30-18-13-18-13-25 3-25 3-24 50-43 86c-10 20-18 42-18 49v12l18-21c9-11 49-38 87-59zm-916 22-22-24h-31c-17 0-38 5-46 10l-15 9 37-5 37-6 28 28 28 29 4-8c2-5-7-19-20-33zm86-91-7-68-19-42-18-43h-33l7 37c7 39 64 183 72 183 3 0 2-30-2-67zm545 2447c-19-16-30-30-24-30 5 0 23 14 39 30 36 38 30 38-15 0zm106 3-7-18 12 12c7 7 10 15 7 18s-9-2-12-12zm-589-4c-20-12-47-61-47-87v-18l31-32 31-32h60l34 34 34 34v16c0 10-7 30-15 47l-16 30-25 9c-32 13-64 12-87-1zm79-35 14-20-14-19-14-19-28-1-29-1-7 11c-13 17-9 34 13 56l20 20 16-3c9-2 22-12 29-24zm-145 10-21-27v-22c0-12 3-25 7-28l6-7 18 52c10 29 16 54 14 56-1 2-12-9-24-24zm249 1-12-14 7-11c3-5 15-10 25-10h19l10 19 10 18-6 7c-11 11-40 6-53-9zm265-73c-34-31-49-47-35-34 38 32 49 27 15-8-16-16-24-30-19-30s39 30 74 67c36 37 53 57 38 44l-28-24v9c0 6 5 15 12 22s10 12 8 12c-3-1-32-26-65-58zm35 3c-7-9-15-13-19-10-3 3 1 10 9 15 21 14 24 12 10-5zm-746-30c-7-17 2-45 14-45 4 0 17 6 27 14l18 13-6 17-6 16h-42l-5-15zm36-5c0-5-7-10-16-10h-15l6 10c3 6 10 10 16 10 5 0 9-4 9-10zm961-26c-24-31-26-47-8-62l13-11 22 15c12 8 29 28 37 43l14 28-6 7c-4 3-17 6-29 6h-23l-20-26zm25-12-18-17 12 23c6 13 14 21 18 18 3-4-2-14-12-24zm-188 17-18-10v-48l16-9 17-9 19 5 18 4 7 26 6 25-18 14c-22 15-25 16-47 2zm32-24v-15h-30v30h30v-15zm-969-36 21-31-5-46-5-47 19 24 19 23v55l-21 27-20 26h-30l22-31zm692 19c-25-12-31-27-10-24 6 1 23 9 37 19l24 17-14-1c-8 0-25-5-37-11zm71-19-7-11 14-9c18-11 70-11 87-1l13 9-26 11c-14 7-37 12-50 12h-24l-7-11zm-860-13c-9-23-1-48 19-60l17-11 18 11 17 11v58l-33 3-32 3-6-15zm196-60-12-16 6-15c3-9 13-18 22-22l16-6 16 17 17 16-11 18c-6 9-18 18-26 20l-15 3-13-15zm32-28-12-12-6 7-6 6 6 17 7 17 11-11 12-12-12-12zm-332-13-13-16 11-11 11-11 16 7 16 6-3 17c-4 23-22 27-38 8zm1611 2-13-16 4-18 4-18 13 23c7 13 11 28 9 34l-4 10-13-15zm-371-385c0-5 7-15 15-22l15-12v10c0 5-7 15-15 22l-15 12v-10zm-10-783-12-21 7-6 6-6 9 14c10 16 13 40 5 40-2 0-9-9-15-21zm-990 881c33-26 52-25 21 0-13 11-28 20-35 20h-11l25-20zm-150-439c0-5 7-14 15-21 16-14 18-10 9 14-6 17-24 22-24 7zm1344 444-19-14 11-1c5 0 14 4 20 9 5 6 34 12 64 14l55 3-56 2-55 2-20-15zm331-226c-4-6-5-13-2-16 7-7 27 6 27 18s-17 12-25-2zm-2125-49-15-10h64l6 10 6 10h-23c-13 0-30-5-38-10zm-10-40-25-8 33-1 32-1v10c0 11-5 11-40 0zm206-37c-3-3-6-17-6-30v-23h9c5 0 11 11 13 25l5 25-7 5c-4 2-10 2-14-2zm-244-234-23-9 6-9 5-10 30 11c17 5 30 14 30 19 0 11-18 11-48-2zm-12-49c-8-5-12-12-9-15 8-8 39 5 39 16s-11 11-30-1zm33-37c-42-14-58-33-28-33 25 0 85 28 85 39 0 14-5 13-57-6zm112 7-6-10h10c6 0 11 5 11 10 0 6-2 10-4 10-3 0-8-4-11-10zm27-311c2-6 8-10 13-10s11 4 13 10l4 11h-34l4-11zm-67-8-5-10 10-6 10-6v15c0 18-6 21-15 7zm851 600-16-30 1-33 1-33 19 60c20 66 18 82-5 36zm34-1-20-20v-77l18-16 19-17h71l53 28 54 28v29l-64 33-64 32h-47l-20-20zm437-10c-51-20-77-37-77-51 0-12 66-44 118-59l44-11 24 16 24 15v36c0 19-5 44-10 55l-11 19h-32c-18-1-54-9-80-20zm172-3c6-16 11-47 12-70v-42l8 20 8 20-9 40c-5 22-14 45-19 50l-10 10 10-28zm658-14c-2-4-2-70 1-145l5-138h13c7 0 18 9 24 19l10 20-1 88v88l-12 34c-12 34-31 50-40 34zm103-78-12-15h32v15c0 8-2 15-4 15s-9-7-16-15zm-4-102c-7-8 33-43 49-43h14l11 19c5 11 10 21 10 23 0 5-79 6-84 1zm-564-315c-27-46-53-94-57-107l-7-23 13 4c15 5 103 149 114 186l6 22h-9c-6 0-33-37-60-82zm38-79c-7-11-10-23-7-25 2-2 9 7 15 21 14 30 7 33-8 4zm36 4-7-18 12 12c7 7 10 15 7 18s-9-2-12-12zm-154-100c-7-12-12-27-12-35v-12l16 22c8 12 14 28 11 35l-4 12-11-22zm34-758-19-14 16-7c10-3 24-3 33 0l16 6-4 12c-6 18-21 19-42 3z"/></g><g fill="#272d67" transform="matrix(.1 0 0 -.1 0 300)"><path d="M1375 2910c-110-12-224-36-309-67-79-29-248-111-308-150l-38-26-19 17-19 17-34 5-35 6-31-16-32-16-15-30c-18-35-19-53-4-94l11-31-45-45-45-45-55 3-55 4-37-34-36-33-6-40-5-40 26-37 25-37-37-76-37-75-20 6c-11 4-41 9-66 11l-46 5-26-32-27-32v-18c0-11 5-31 12-45l12-26 27-15c16-8 40-14 55-14h26l-5-14c-3-8-9-31-13-51l-7-37-14-5c-7-3-20-18-28-34l-15-28v-67l14-19 14-20 1-152 1-151-37-7-36-6-29-29-28-28v-93l16-25c21-32 64-54 104-54h31l13-32 14-33-3-70c-1-38-6-84-10-101l-7-30 16-37 15-37 33-20 33-21 40 5 41 5 51-68 52-67-14-41-14-41 11-38 10-39 34-32 35-32 37-7 37-7 46 17 47 16 84-56c79-53 233-134 255-134h10l6-46 5-46 19-27 20-26 37-12 37-13 33 14 33 14 17 23c9 13 16 32 16 41v18l98-5c53-4 107-8 118-11l22-4 6-34 7-35 26-21 26-20h74l26 26 27 26 6 34 6 33 57 11c31 6 82 18 113 27l57 15 44-21c51-25 75-26 121-7l33 14 21 26c11 15 24 40 27 56l6 29 60 37 59 36 36-31 35-31h61l29 29 29 29v39l-1 38-14 25-14 25 73 75c222 227 334 470 371 803l6 57h22c12 0 37 9 55 20l32 20v139l-22 15-22 16h-72l-12 83c-7 45-15 94-18 109l-6 27 34 14 34 14 26 32 27 31 6 43 7 43-17 42-17 42-34 30-35 30-22 1c-12 1-24 1-27 1-3 1-24-2-47-6l-41-6-21 36c-27 46-27 50 9 91l30 34v29c0 42-17 74-50 93-33 20-52 21-95 6l-32-12-36 39-36 39 22 8c39 14 42 41 9 80-21 23-39 21-65-7l-22-24-65 48c-36 27-69 54-75 61-5 6-27 29-47 50l-37 38-48 7-48 7-55 27c-85 43-191 78-298 99l-97 20-115 5-115 4-80-8zm305-75 105-14 80-24c44-14 118-42 163-63l83-37-6-21c-3-12-9-37-12-56l-5-36 16-38c9-21 16-52 16-68v-30l13 5 12 4-2 44c0 24-4 68-8 97l-8 53 18 19c22 24 43 25 74 4l23-17-4-47-5-47-32-41-33-40-5-40-5-39 11-7 11-7v14c0 8 9 25 20 38l20 24-6-20-5-20 59 64 60 64 35-21c45-28 187-182 187-203 0-16 20-10 54 16l33 25h41l5-13 5-13-12-15c-6-8-27-25-47-37l-36-22h-102l-5 8c-2 4-1 14 3 21l8 13-9 38-10 38-31 32-31 32-44-5-44-5-20-19-20-20-5-40-5-39 26-31 26-31-78-4c-42-2-87-2-99 0l-23 4 5 8 5 8-17-2-18-1v15l-1 15-12-2-12-3 3 12 2 12-21 2c-12 0-26 4-33 8l-11 7 5 9 6 9-20 11c-11 5-24 10-28 9s-14-1-21 0l-12 1 2 13 3 12-22-1h-22l4 7c3 3-18 16-46 28l-50 22-21-7-21-6 6 9 6 10-47 11-47 10-30-5-30-5 13 10 13 9-80-5-80-5-7 27c-8 33-22 33-30 1l-6-25h-28v77l67 39 66 39-21 3c-11 2-38-1-59-7l-38-11-3 10c-2 6-12 10-23 10h-19v-30l-20-12c-11-7-20-18-20-25v-13h30v-55l-99-22-99-21-91-41c-93-42-216-116-239-143l-13-16-111 4-111 3-13 30-12 30-31 15-30 16-25-10-26-10v13c0 8 36 49 80 93l80 79-30 25-30 25v44l21 12 21 11 38-37 38-37 58 40c87 59 233 129 348 167l101 34 100 14c131 19 236 20 365 2zm215-423c-3-3-11 0-18 7l-12 12 18-7c10-3 15-9 12-12zm515-2 20-20v-59l-16-15c-20-20-44-20-72 0l-23 16 3 36 3 37 25 12c33 17 37 16 60-7zm-1966-56 38-26 33 6 34 7 15-29 15-29-42-6c-23-3-72-2-108 2l-67 7-16 13c-20 17-20 45 0 65l15 16h44l39-26zm1215-121c30-8 82-28 115-45l61-31 66-66 66-66 30-60c17-33 38-85 48-115l19-55v-200l-23-69c-13-37-72-169-132-293l-109-224-10 6-10 6 7-17 6-17-11 7-11 7-10-20-11-20 7-17 6-17-10 6-11 7-6-15c-3-8-2-22 1-32l6-16-11 7-12 7-1-13c-1-7 0-21 1-32l2-18-13 8-12 7 7-18 6-18-17 14-17 14 7-17 6-18h-16l2-30 2-30h-8c-4 0-9 6-12 13l-4 12-7-7-7-6 12-19 12-19-63-132c-61-127-85-162-60-88 6 20 9 42 7 49l-5 12-17-40-17-39-15 28c-8 15-17 26-19 23-7-7 33-84 46-89l11-3-6-18c-4-9-10-17-14-17s-33 57-66 128c-32 70-118 249-190 397-189 388-281 584-296 630l-13 40-1 100v100l13 45c12 41 22 64 70 154 8 16 45 58 81 93l66 65 60 33c127 71 280 88 424 48zm-710-70c34-21 61-40 61-43s-97-6-216-7-218-4-221-7c-2-2 3-16 12-30l17-26h307l36-17c19-9 35-20 35-25 0-4-16-15-36-23l-36-15H711l-23 9c-13 4-42 11-66 15l-43 6 21-41c12-22 24-39 27-36 2 3-1 15-7 27l-12 22 7 6 7 7 17-25c9-14 71-94 138-178 68-84 127-160 132-170 8-16 51-165 51-179 0-3-8 1-19 11l-18 17-7 61c-3 34-10 66-14 70l-7 7 1-55 1-56-59 59-60 58-131 183-131 183-1 18c-2 21-71 137-88 148l-12 7 50 13 50 12-48-3c-26-2-50-6-53-9s2-19 11-36c8-17 14-31 11-31-5 0-76 98-76 105 0 3 119 5 264 5h265l60-37zm1694 12c-10-13-21-25-25-25-5 0-8-7-8-15v-15l-27-1-28-1 18-5c9-2 17-9 17-14v-9l-27-1-28-1 18-5c9-2 17-9 17-14v-9h-45l12-8 13-8-100-143c-141-201-212-292-235-305-11-6-37-24-57-39l-38-29v36l-9-10c-6-5-12-25-14-46l-3-36-17-24-17-23 6 35c3 19 13 60 22 90l16 55 46 58c25 32 56 73 70 90 14 18 55 71 93 119 37 47 67 89 67 92s-62 6-137 6l-138 1-40 18-40 18 42 21 42 22h319l17 26c9 14 15 27 13 29s-104 5-226 7l-222 3v7c0 3 26 22 58 42l57 35 268 1h268l-18-25zM391 2024c29-54 64-115 79-134s39-53 53-76l25-40-5-30c-3-16-12-37-21-46l-15-17 7-93c4-51 12-140 18-198l11-105 12-15c6-8 35-63 63-121 28-59 63-120 77-137l26-31-10-20c-16-30-13-53 13-85l24-29 13 36 13 36 45-42c118-110 259-188 424-234l97-27v-26h-19c-10 0-24-7-31-15l-12-15 12-15c15-18 41-20 57-4l11 11 17-33 17-33-11-19-12-19 12-14c6-8 18-14 26-14h14l13-32 14-32-16-12-17-12 7-8 8-7 13 12 14 11 34-6c19-4 40-12 48-18l13-10 14 19c8 10 14 31 14 46v26l58 113 59 113 67 19c88 24 178 65 265 122l71 46 74 72 73 73 56 86 57 86 30 76c16 41 37 106 46 143l16 69 1 120 1 120-13 57-12 57 11 21 12 22 16-8c9-4 33-9 53-12l36-4 34 18c19 10 53 23 77 30l43 11 32-7 32-6-40-22-40-23 25 7c14 4 32 7 40 8l15 1v-49l-48-24-47-25-7-25-6-26 19-35 19-36 35-17 35-18h153l5-14c9-23-2-26-84-26h-77l-23-20-24-20 20 2c11 1 33 0 49 0l30-2-10-10c-5-5-31-11-57-14-51-4-69-13-46-20 8-2 28-9 44-14l30-10-37-1c-20-1-44-4-53-7l-17-7 14-8c7-5 25-9 40-9s30-4 33-10l6-10h-73l4-12 4-12 50-12 49-12-62-1-63-1v-26l32-2c18-2 37-7 42-12l10-10h-64v-9c0-5 10-13 23-17l22-8-33-6c-18-3-34-9-35-15l-2-10 30-6 30-7-22-1c-12 0-25-6-29-12l-7-11 14-9 13-8-17-7-18-7-12 12-11 11h-102l-26-28c-15-15-31-38-36-52l-9-25 4-32 5-32-16-23c-9-12-16-27-16-32v-9l23 21 22 21 18-10 18-10-31-35c-16-19-30-39-30-45v-10l10 6c18 11 10-3-17-32l-26-28 6 17 6 16-14 19c-8 10-15 26-15 36 0 27-16 20-50-20l-31-38 16-3 15-3v-18c0-9-5-22-12-29-16-16-6-15 28 3 27 14 49 11 28-3-5-4-20-20-32-36l-22-29v-44l-21-19-22-19 7 22 7 22-21 21-22 22-15-6-15-6-32 31-31 31-50-4-50-4-23-19c-12-11-22-25-22-32v-13h-28l-18-28-17-27 19 15c10 8 22 19 25 23l6 9 7-41 6-40 37-26c21-14 46-25 55-25h18v-17l-1-18-25-18-25-18-41 30-42 31h-76l-20-20c-22-22-25-42-10-71l11-19 68-35 68-34 7-16c3-9 6-31 6-48v-30l-17-19-16-18h-65l-21 34c-12 18-21 39-21 47 0 7-10 23-22 36l-21 23h-68l-23-15c-13-9-47-19-75-24l-51-8v22l-9-14-9-14-17 6-16 7 6 21 7 21-13-4c-15-5-37-42-56-98l-13-35 5 37 4 38h-177l-6 16-6 16-19-5-20-5 6 14 5 14-17 6-17 7-8-14c-5-7-6-17-3-23l6-9-39 7c-21 4-48 8-59 9l-20 2-12-40c-7-22-17-65-23-95s-18-64-26-75l-15-20-15 20-16 20 5 45 4 45 31 72c18 39 32 81 32 92v21h-20c-11 0-20-4-20-9s-13-23-29-40l-29-31h-29c-15 1-39 7-53 15l-25 14 20 1h19l-22 16c-12 8-22 20-22 25v10l19-11c11-5 33-10 49-10h30l21 18 21 17 6 32 6 32-25 25-26 26h-75l-23-22-23-21v-45l-21-5-20-5 6 28 6 28-10 7-11 6-20-33-20-33v23c0 27-11 28-35 2-27-30-29-17-5 30l22 42-12 29-12 29h-27c-14 0-36-3-48-6l-23-6v-13c0-7-19-37-42-68l-43-56-29-14-28-15-19 5c-23 6-59 49-59 70 0 8 7 27 15 43l15 28 47 17c114 41 208 81 213 90l5 10-18 3c-16 3-60-8-133-34l-19-7 29 31c46 49 25 47-34-4-65-56-78-51-16 6 25 24 46 49 46 56 0 21-11 17-47-18l-33-32-7 8-7 7 12 19c7 11 12 25 12 32v12l-31-30-30-29 7 20c4 11 16 32 26 48 25 35 12 35-24 0l-28-27v14c0 7 11 28 25 46s25 38 25 45v13l-41-39-40-40 7 20c4 11 18 32 32 47 44 47 16 42-49-8l-62-49-4 10c-2 6-7 16-12 24l-9 14-27-17-27-18-14 6-15 6 6-10 6-10h-41v53l15 17 15 16-12 32-12 31 19 20 18 21h50l-22-24-23-24 10-6 9-5 19 13 19 14 13-10 13-11-17-18-17-19 7-7 7-7 19 12c11 7 26 12 34 12 17 0 26 21 26 59v28l-25 23-25 23h-90v14c0 7-5 13-11 13h-10l6-20 6-20h-10c-13 0-38 46-42 78l-4 24 48 16 48 17-3 10-3 10h-70c-38 0-91-4-117-9l-47-8-13 26-12 27 22 22 22 21 67-17c79-20 112-21 164-5 44 13 64 32 73 69l6 27-22 27-21 27-43-5-44-5-25-16-26-17 6-9 6-10h80l6-16 6-16-14-9c-18-11-80-11-99 1l-15 9v306l35 5c48 8 60 17 75 54l13 31-5 28-5 27-30 25c-16 14-36 25-44 25-18 0-18 5 1 68l16 52h17c10 0 22-4 28-10l10-10 36 10 36 10 6 16 6 17-18 31-18 31-30 10c-16 5-31 10-33 12s4 21 14 43 20 39 21 37c2-2 27-48 55-103zm2285 40c-25-18-31-12-16 16l12 22 11-12 12-11-19-15zm191 11 22-16 7-36 7-37-30-26-30-27-71-6c-39-4-82-11-95-16l-24-10-12 25-11 24-24 11-24 11 5 14 5 14h67l63 44 63 45h30l31 1 21-15zm-2685-56c11-6 34-15 50-19l28-9 20 21 19 21 26-17 25-16v-31l-77 7c-43 3-94 9-113 13l-35 7-3 17-3 17h21c12 0 31-5 42-11zm1951-146c13-21 27-47 31-59l6-21-12-10-13-10-32 68-32 69h29l23-37zM264 1764c25-25 18-67-14-84l-18-10-31 16-31 15v21c0 12 7 30 17 40l16 18h46l15-16zm1863-16-5-13-1 19c-1 11 2 17 5 13 3-3 4-12 1-19zm270-95c4-27 7-92 6-146l-3-97-15-66c-58-251-240-487-460-597-61-30-196-79-202-73-3 2 2 17 10 33l15 29 59 23c32 13 89 42 128 65l70 41 74 70 74 70 39 58c54 79 93 166 119 262l21 80 2 115 2 115 19 32c11 18 23 33 27 33s10-21 15-47zm374 33-25-14 20-4 19-4-23-6-22-6 6 9 5 9h-13l-13 1 25 14c14 8 30 14 35 14 6 0-1-6-14-13zm19-76c0-5-4-10-10-10-5 0-10 5-10 10 0 6 5 10 10 10 6 0 10-4 10-10zm-580-258-22-94-39-77-39-76-57-63c-31-35-79-81-107-101-51-38-135-85-141-79-3 4 104 222 179 363l58 110 32 27c17 15 46 40 64 55 19 15 46 41 60 57l27 28 3-28 4-27-22-95zm-1344 0 12-47 1 49 1 49 23-21 23-22h39l41-94 42-94-9-13c-5-8-9-24-9-36v-23h9c5 0 14 7 21 15 20 24 23 10 5-25l-16-32 6-6 6-7 20 25 20 25-6-45-6-45 16 20 15 19-6-33-7-33 19 6 20 6 27-56c16-31 26-58 24-60-15-16-148 69-220 141-77 77-142 185-161 268l-6 27h10c5 0 10-6 10-12 0-7 8-22 16-33l16-20-5 30c-3 17-9 55-13 85l-6 55 8-8c5-5 14-30 20-55zm-176-102c0-5-5-10-11-10h-10l6 10c3 6 8 10 11 10 2 0 4-4 4-10zm15-51c4-17 9-28 12-25s28-30 54-73l49-79 65-66 66-65 75-50 74-50 86-33 86-32 16-23c8-13 12-26 10-29-9-9-148 44-226 86-127 69-255 183-319 284-42 65-73 128-73 145 0 10-5 22-12 29l-12 12h42l7-31zm1929-121c9-12 16-33 16-47v-24l-17-19-16-18h-57l-20 20-20 20v53l17 19 16 18h66l15-22zm-586-132-77-73-89-47c-50-25-96-46-104-46-7 1 20 16 61 35 85 40 179 106 236 164 21 23 42 41 45 41 3-1-30-34-72-74zm477-64-28-27 24 31c13 17 26 30 28 27 3-2-8-16-24-31zm-105-46c0-18-17-29-30-21l-11 7 12 14c15 18 29 18 29 0zm-1220-36 15-10h-10c-5 0-17 5-25 10l-15 10h10c6 0 17-5 25-10zm978-96 22-15v-48l-22-15c-27-19-59-21-76-4l-12 12v55l22 15c12 9 27 16 33 16s21-7 33-16zm122-100c0-2-7-4-15-4s-15 4-15 10v9l15-5c8-4 15-8 15-10zm-970-38c0-8-4-17-9-21l-10-5-6 10c-7 12 2 30 16 30 5 0 9-6 9-14zm-296-79 11-18-19-14-18-14-14 14c-15 15-18 37-7 49 11 11 35 2 47-17zm381-37 6-10h-10c-6 0-11 5-11 10 0 6 2 10 4 10 3 0 8-4 11-10zm970-55v-18l-12-4-13-5v54l13-4 12-5v-18zM1587 93l-15-15-11 19-10 20 11 39 10 39 15-44 15-44-15-14zm-360 2666c-21-12-47-61-47-87v-20l35-31 36-31h47l30 25 30 25 6 25 6 25-15 31-16 30-25 9c-32 13-64 12-87-1zm77-25 16-15v-52l-17-13c-24-18-48-17-67 2l-16 15v48l22 15c28 20 43 20 62 0zm-143 0-21-27v-22c0-12 3-25 7-28l6-7 18 52c10 29 16 54 14 56-1 2-12-9-24-24zm249-4-11-20 16-6c8-3 22-3 31 0l15 6-3 17-3 18-17 3-17 3-11-21zm40 1c0-12-20-25-27-18s6 27 18 27c5 0 9-4 9-9zm-486-96c-7-17 2-45 14-45 4 0 17 6 27 14l18 13-6 17-6 16h-42l-5-15zm34-6c-2-6-8-10-13-10s-11 4-13 10l-4 11h34l-4-11zm1008-12 5-13-21-19-20-18-7 6-6 7 19 22 19 23-22-19-23-19v-47h13c7 0 26 13 41 29l29 30-6 15c-4 9-11 16-16 16h-10l5-13zm-179-18 11-11-5-14c-6-17-30-18-36-1l-4 12-8-7-8-8 13-15c7-8 21-15 31-15h18l11 21 11 20-12 15c-6 8-16 14-22 14h-11l11-11zm-966-50 21-31-5-46-5-47 19 24 19 23v55l-21 27-20 26h-30l22-31zm776 3-17-4 5-9 6-9h46c26 0 44 2 41 5-10 10-63 21-81 17zm-873-16c-9-23-1-48 19-60l17-11 18 11 17 11v58l-33 3-32 3-6-15zm794-33c7-3 16-2 19 1 4 3-2 6-13 5l-19-1 13-5zm-598-27-12-16 6-15c3-9 13-18 22-22l16-6 16 17 17 16-11 18c-6 9-18 18-26 20l-15 3-13-15zm40-10c0-16-18-31-27-22-8 8 5 36 17 36 5 0 10-6 10-14zm-317-29 6-16-9-6-10-6v35l-12-12-12-12 11-11 12-12 15 6 16 6v15c0 8-5 18-12 22l-11 7 6-16zm1583-13c-10-25 1-29 14-5l11 21h-10c-5 0-12-7-15-16zm-1674-71c43-43 56-41 28 5l-20 32h-45l37-37zm1438-7c0-2 7-7 16-10l15-6-6 10c-6 10-25 14-25 6zm-565-134c-22-2-70-12-108-23-37-11-71-17-76-14l-9 5-14-12c-7-7-20-14-28-16-8-1-30-10-47-20l-33-17v-14c0-8-3-12-6-8-3 3-17-6-30-20l-25-27 5-13 5-13h-30l5-9 6-9-29-64c-16-34-36-91-45-124l-16-62v-106l16-65c9-36 30-92 46-124l29-58 62-62 62-63 50-28c28-15 79-37 115-47l65-19h140l68 19c85 25 164 70 220 126l44 44 40 78c63 123 75 189 64 363l-4 65-11 8-11 7 15 10 15 10h-42l-18 41-19 40-61 62-62 62-59 32c-101 53-190 73-289 65zm316-168 45-22 38-42 38-43 31-65 31-65 4-78 4-77-12-54c-17-69-35-104-95-181l-50-64-60-41c-33-23-78-48-99-57l-39-16-66-6-66-5-64 17c-36 9-90 29-120 45l-56 28-32 34c-17 18-47 62-66 98l-36 65-15 60c-8 32-13 61-11 64 3 2 5-1 5-7s14-27 30-46l31-35 44-17 45-17 67 5 68 5 74 26 74 26 76-26 76-25 67 5 66 6 41 20 41 21 20 40 20 39v103l-22 40-23 40-45 26-45 27-75-1-75-1-70-26-70-26-40 23c-22 13-70 33-107 45l-67 22 21 21 22 22 20 1 21 1 12 25 12 25 41 23 40 22 36-13 35-12 9 14c6 8 10 12 10 9 0-4 15-3 33 1l32 8 50-5 50-6 46-23zm-425-195c17-5 58-25 90-45l58-35 82 41 82 41 54 6 54 5 33-16 32-17 19-32 20-32v-106l-14-28c-8-15-27-36-43-46l-27-18h-57l-57 1-61 27c-33 15-66 34-72 42l-12 13 7 7 7 7 19-12c30-19 38-14 12 8l-24 19 7 12 7 11-21-11c-11-7-21-16-21-21 0-6-7-10-16-10-8 0-34-13-57-28-23-16-65-38-94-50l-52-22h-82l-30 16-31 15-19 42c-21 47-24 85-9 138l10 35 24 23 25 23 33 8c35 8 73 4 124-11zm384 129c0-33 10-40 32-24l17 13-5 21-6 21-19-2-19-1v-28zm-559-526-1-32 33-35 32-35 35-7 35-6-51 49c-27 27-58 60-67 74l-16 25v-33zm15 319-16-30 1-33 1-33 19 60c20 66 18 82-5 36zm34-1-20-20v-77l18-16 19-17h68l55 28 55 28v29l-64 33-64 32h-47l-20-20zm437-10c-51-20-77-37-77-51 0-12 66-44 118-59l44-11 24 16 24 15v79l-16 15-15 16h-27c-15-1-49-9-75-20zm172-3c6-16 11-47 12-70v-42l8 20 8 20-9 40c-5 22-14 45-19 50l-10 10 10-28zm61 295c0-5 7-15 15-22l15-12v10c0 5-7 15-15 22l-15 12v-10zm-10-783-12-21 7-6 6-6 9 14c10 16 13 40 5 40-2 0-9-9-15-21zm-750-56c0-7 20-56 45-109 25-52 45-99 45-103 0-5 7-14 15-21 20-17 19-9-10 61-31 73-95 189-95 172zm691-66c-42-76-53-108-25-72 23 29 76 136 71 142-3 2-23-29-46-70zm-561 22v-10l-21 6-21 7 4-8c2-5 19-40 37-79 18-38 67-140 108-225 42-85 86-179 100-209l24-54 9 9c12 13 269 548 265 552-2 2-16-3-32-11-16-9-58-23-93-32l-65-17-110 4-110 4-33 19c-17 11-32 25-32 31 0 7-7 14-15 18l-15 5v-10zm313-116c26 6 50 8 52 5 3-3-20-57-50-121-30-63-55-121-55-127v-11l-25 3-26 3-35 85c-19 47-43 102-53 122l-18 37 9 3c5 2 41 1 81-2l72-6 48 9zm-313-139c13-33 51-87 57-81 7 8-46 107-57 107h-10l10-26zm315-285c-22-41-13-48 14-11 23 33 26 42 11 42-5 0-17-14-25-31zM905 2150c10-11 20-20 23-20s-3 9-13 20-20 20-23 20 3-9 13-20zm-355-194c0-9 59-96 66-96s-10 29-40 69c-14 19-26 31-26 27zm310-410c0-2 7-9 15-16l15-13-6 17c-5 14-24 23-24 12zm1234 609-19-14 11-1c5 0 14 4 20 9 5 6 34 12 64 14l55 3-56 2-55 2-20-15zm245-358c-59-80-83-117-78-121 2-2 34 39 72 90 37 52 64 94 60 94-5 0-29-28-54-63zm-2039 83-15-10h64l6 10 6 10h-23c-13 0-30-5-38-10zm-10-40-25-8 33-1 32-1v10c0 11-5 11-40 0zm206-37c-3-3-6-17-6-30v-23h9c5 0 11 11 13 25l5 25-7 5c-4 2-10 2-14-2zm2007-160c4-54 7-118 7-143v-44l18 17 17 18-1 97-2 97-11 28-11 27h-23l6-97zm-2015 62c-3-6-11-46-18-90l-12-80 7-70c8-85 24-153 38-162l10-6-7 49c-4 27-11 78-15 114l-8 65 9 83c5 46 7 89 5 95l-3 11-6-9zm-238-137-25-10 13-5c18-7 62 5 62 17s-18 12-50-2zm-2-46c-10-2-18-8-18-13 0-11 11-11 30 1 18 11 11 18-12 12zm25-39c-24-8-43-19-43-24 0-11 6-11 52 1 37 11 55 25 41 33-5 2-27-2-50-10zm112 7-6-10h10c6 0 11 5 11 10 0 6-2 10-4 10-3 0-8-4-11-10zm2112-107c-8-16-17-39-20-53l-6-25 8-14 9-14 11 7c12 8 31 70 31 104v22h-10c-5 0-16-12-23-27zm89-55-26-23-6-35-5-35 19 41 20 41 17 6c9 4 28 7 41 7h25l-6 10c-3 6-17 10-30 10h-24l-25-22zm-2076-68c0-16 36-80 45-80 7 0-23 72-36 85l-9 9v-14zm2074-71-6-11 9-9c5-5 23-12 41-15l32-6v10c0 13-39 42-57 42-6 0-15-5-19-11zm-2164-9c0-5 5-10 11-10h10l-6 10c-3 6-8 10-11 10-2 0-4-4-4-10zm-135-40-6-10h10c6 0 11 5 11 10 0 6-2 10-4 10-3 0-8-4-11-10zm185-9-10-21 14-35 15-35h13c18 0 38 20 38 39v15l-12-12c-7-7-19-12-27-12l-16 1 28 17 28 17-3 20-3 20-27 3-27 3-11-20zm50-6v-16l-15-6c-20-7-29 2-22 22l6 15h31v-15zm-270-5c0-5 5-10 10-10 6 0 10 5 10 10 0 6-4 10-10 10-5 0-10-4-10-10zm70-41v-10l10 6c6 3 10 8 10 11 0 2-4 4-10 4-5 0-10-5-10-11zm130-154-13-15 17 6c9 3 16 10 16 15 0 13-6 11-20-6zm-40-35-14-9 7-7 7-8 17 17 17 17h-9c-6 0-17-4-25-10zm1777-67c-4-3-7-11-7-17v-10l12 12c6 6 9 14 7 17-3 3-9 2-12-2zm-945-255c2-6 10-14 16-16l12-4v32h-32l4-12zm54-90c-24-34-19-44 9-18 14 13 25 27 25 32 0 16-19 8-34-14zm412 5c-8-10-18-26-21-36l-7-18 15-35 14-34h57l22 16 22 15v69l-20 20-20 20h-47l-15-17zm71-27 12-15-3-27-3-27-17-10-16-11-26 12-26 12v68l13 5c6 3 22 6 33 6l22 1 11-14zm254 785c-29-48-53-94-53-102l1-14 20 24c11 13 36 53 55 87l36 64-4 14-3 14-52-87zm-83-181c-6-11-8-20-6-20 3 0 10 9 16 20s8 20 6 20c-3 0-10-9-16-20z"/></g><g fill="#090b28" transform="matrix(.1 0 0 -.1 0 300)"><path d="M1375 2910c-110-12-224-36-309-67-79-29-248-111-308-150l-38-26-19 17-19 17-34 5-35 6-31-16-32-16-15-30c-18-35-19-53-4-94l11-31-45-45-45-45-55 3-55 4-37-34-36-33-6-40-5-40 26-37 25-37-37-76-37-75-20 6c-11 4-41 9-66 11l-46 5-26-32-27-32v-18c0-11 5-31 12-45l12-26 27-15c16-8 40-14 55-14h26l-5-14c-3-8-9-31-13-51l-7-37-14-5c-7-3-20-18-28-34l-15-28v-67l14-19 14-20 1-152 1-151-37-7-36-6-29-29-28-28v-93l16-25c21-32 64-54 104-54h31l13-32 14-33-3-70c-1-38-6-84-10-101l-7-30 16-37 15-37 33-20 33-21 40 5 41 5 51-68 52-67-14-41-14-41 11-38 10-39 34-32 35-32 37-7 37-7 46 17 47 16 84-56c79-53 233-134 255-134h10l6-46 5-46 19-27 20-26 37-12 37-13 33 14 33 14 17 23c9 13 16 32 16 41v18l98-5c53-4 107-8 118-11l22-4 6-34 7-35 26-21 26-20h74l26 26 27 26 6 34 6 33 57 11c31 6 82 18 113 27l57 15 44-21c51-25 75-26 121-7l33 14 21 26c11 15 24 40 27 56l6 29 60 37 59 36 36-31 35-31h61l29 29 29 29v39l-1 38-14 25-14 25 73 75c222 227 334 470 371 803l6 57h22c12 0 37 9 55 20l32 20v139l-22 15-22 16h-72l-12 83c-7 45-15 94-18 109l-6 27 34 14 34 14 26 32 27 31 6 43 7 43-17 42-17 42-34 30-35 30-22 1c-12 1-24 1-27 1-3 1-24-2-47-6l-41-6-21 36c-27 46-27 50 9 91l30 34v29c0 42-17 74-50 93-33 20-52 21-95 6l-32-12-36 39-36 39 22 8c39 14 42 41 9 80-21 23-39 21-65-7l-22-24-65 48c-36 27-69 54-75 61-5 6-27 29-47 50l-37 38-48 7-48 7-55 27c-85 43-191 78-298 99l-97 20-115 5-115 4-80-8zm343-76 97-15 87-29c93-31 202-83 213-100l7-11-10-12c-5-7-13-26-16-43l-7-32 15-37c9-21 16-48 16-61 0-12 4-25 9-29l10-5 6 10 7 11-18 75-18 76 15 26 15 27 18 3c10 2 29 1 42-2l25-7 15-35 15-36-9-28c-6-15-26-48-46-74l-36-48v-36l70 72 69 71 46-24 45-24 68-74c37-41 73-86 80-99l13-25 12 7c7 4 21 15 32 24 11 10 30 21 41 24l22 7 16-16 16-16-10-20c-6-11-29-31-51-45l-41-25-79 7-80 7 15 16c8 9 17 28 21 42l7 27-16 29c-8 17-27 38-42 48l-26 17-31-6-31-6-23-22-23-21v-84l26-24 26-24-44-7c-23-3-69-7-102-7l-58-1-62 46c-70 53-182 111-273 143-70 23-216 51-272 51h-37l-11 28-11 27-1-27-1-28h-50v23c0 12 3 32 6 45l7 23 51 26 51 26-13 4c-7 3-26 0-44-6l-31-11-12 17-12 16-11-7c-7-4-12-15-12-25v-18l-22-11-23-11 23-7 22-6v-22c0-11-3-31-6-42l-6-21-53-7c-77-9-209-52-283-92l-63-34-11 6-11 7 7-11 7-12-13-1c-7-1-20-2-28-3l-14-1-12-23c-6-13-20-29-30-36l-19-13-30 2c-16 1-71 3-122 3l-91 2-10 29-10 30-26 16-26 17-35-6-35-7v12c0 6 36 48 80 93l80 82-30 26-30 26v15c0 21 27 47 49 47h17l29-30c16-16 32-30 37-30 4 0 30 16 57 35 65 47 277 147 371 175 41 12 109 28 150 35l75 13 128 1 127 1 98-16zm2-434 85-21 100-50c55-27 116-62 135-78l35-29-26-12-25-11-54 37c-30 20-87 52-127 70l-72 34-83 20-83 20h-200l-70-15c-108-23-184-51-270-100-82-47-99-52-110-34l-7 10 18 15c39 30 164 95 230 120l68 25 86 14 85 14 100-4 100-4 85-21zm700 10 20-20v-69l-22-15c-12-9-31-16-41-16h-18l-24 25-25 24v19c0 11 9 31 21 46l20 26h49l20-20zm-1971-52 36-23h68l20-27 21-28-7-6c-3-3-47-6-96-6h-91l-34 12-34 11-6 22-5 22 15 22 14 23h63l36-22zm1024-5c-13-2-35-2-50 0l-28 4h100l-22-4zm105 0c-16-2-40-2-55 0l-28 4h110l-27-4zm75-10c-7-2-19-2-25 0l-13 5h50l-12-5zm-336-9c-3-3-12-4-19-1l-13 5 19 1c11 1 17-2 13-5zm408-4 20-9-15 1c-8 0-26 4-40 8l-25 8h20c11 0 29-3 40-8zm65-20 15-10-10 1c-5 0-19 4-30 9l-20 9h15c8 0 22-4 30-9zm-659-40c-35-17-76-40-93-51-16-12-31-19-34-16-9 9 150 96 176 97 8 0-14-14-49-30zm742 4c75-38 130-75 123-81-3-4-14 1-23 10-10 8-52 34-93 56-83 45-89 56-7 15zm-248-29 70-15 71-35 71-35 67-66 67-66 34-69c20-38 42-95 50-126l15-57v-185l-29-78c-33-89-231-501-261-542-11-16-17-31-14-34 4-3-1-13-10-22l-16-17 5-9 6-9h-10c-6 0-11-6-11-14 0-7-6-25-13-40l-14-26-8 8-8 7 7-12 6-12-12-26-12-26-13 5-13 5v-7c0-5 4-12 9-17l9-10-76-162c-42-90-79-163-82-163-4 0-24 37-45 83-21 45-96 200-166 343-70 144-151 313-179 375-29 63-73 155-99 204l-48 90-17 63-17 63-1 92-1 92 22 63c11 34 35 88 52 118l32 56 63 62 63 63 58 31c125 66 262 86 398 57zm-672-82 72-48-227-5-227-5 18-24 18-23 159-5 159-6 27-13c15-8 29-18 33-24l6-9-38-17-38-16-135-3c-74-1-136-3-138-4-1 0 60-79 135-173l138-173 23-77c31-108 28-133-11-90l-16 18 5 20 6 21-18 7-17 6 13-15 13-15-7-8-7-7-68 70-67 70-129 180-129 180v17c0 9-4 15-8 12-6-4-148 186-148 200 0 3 120 6 266 6h265l72-47zm1707 35c0-6-8-21-18-32-11-12-45-59-77-106-60-87-228-328-273-390-43-59-86-101-117-115-16-8-40-23-52-34l-23-19v-19c-1-22-23-53-39-53-6 0-11 1-11 3 0 14 51 181 58 190 5 7 66 83 135 171 70 87 127 161 127 165 0 3-61 7-135 8l-135 2-35 12-35 13v11c0 6 15 18 33 27l32 17 164 4 165 4 19 24 19 24-231 3-231 2v8c0 4 30 26 67 50l67 42h526v-12zM366 2088c25-57 104-189 154-258l40-55-12-60-11-60-1-120v-120l18-70c10-38 31-104 47-145l29-76 45-69 46-70-9-37-10-37 13-11 12-10 6 7 7 6v-34l10 6c6 3 10 15 10 26v19h13c6 0 26-14 42-31 51-52 166-134 240-171 73-37 222-88 256-88h20l55-118c30-64 60-127 66-139l11-23 21-7c12-4 28-6 38-4l16 2 7-12 8-11 8 13c5 8 9 28 9 44v30l21 35c12 19 39 70 61 112l39 78h13c23 0 168 51 221 77 184 92 339 250 435 441l41 82 25 96 24 97v242l-14 57-13 57 18 17 18 16 35-12 36-12 35 12c19 6 41 17 48 24 14 14 105 36 131 32l18-3 14-39c8-21 14-45 14-51v-13l-47-22-48-23-10-28-9-28 14-26c8-14 28-35 43-47l28-21h156l17-14c21-18 20-27-4-51l-20-20h-69l-15-15-15-15h-92l5-9c4-5 24-12 46-16l40-7v-18l-62-1-63-1 45-10c25-5 54-14 65-18l20-9h-47l-47-1-5-9-6-9 50-12 50-12-5-8-5-9-50 5-50 4v-19l38-6c20-4 43-9 51-11l14-4-7-7c-4-4-15-8-24-8-9-1-28-3-42-4l-25-2 25-14 25-14-22-1c-12 0-29-3-38-6l-17-7 37-13 37-12 14 5 14 5v-22h-90v-9c0-5 10-12 23-16l22-6-15-5c-8-3-22-8-30-11l-15-5 30-13 29-13 14 6 15 5-5-14-5-14-29 3-29 4-15 18c-21 25-54 40-87 40h-28l-32-20-32-19-12-39-11-39 13-28c8-16 26-37 40-48l27-19 36-1c20-1 36-4 36-7 0-10-61-102-107-163l-45-58-28 36-28 36-7-11-7-11 7-26c3-15 13-32 22-38l16-12-43-41-42-40-13 5-13 4-14-27-13-28-50-38c-27-20-72-49-99-64l-50-27-4 13c-3 7-19 29-36 48l-32 34-44 5-45 5-19-21-18-20 6-24 6-24 65-32 65-32 15-22 15-21v-66l-20-20-20-20h-70l-15 24c-9 14-26 44-38 68l-22 43-31 3-32 3-28-26c-16-15-23-24-16-20l12 6v-10c0-13-20-18-105-30-69-10-91-7-66 8l13 8-16 6-16 6v18l-1 18-15-29-16-29 6-66c3-36 7-79 8-95l3-28-18-12-18-11-15 20-15 20 8 25c4 14 7 45 7 70l1 45-78 6c-43 4-81 9-84 13-4 3 1 6 10 6h16l-25 25c-31 31-42 31-50 0l-6-25h-23c-12 0-36 3-53 6l-31 6 5 13 5 12-16 13-16 13-11-11-10-10-8-97-7-97-14-9c-8-5-23-8-34-7l-20 3-13 28-14 29 12 46c6 26 22 72 35 102s25 64 27 74l3 19-10 4-10 3-25-45-25-45h-21c-12 0-43 9-68 20l-46 19v20c0 11-4 23-10 26l-10 6v-33l-12 5c-14 5-14 9-3 45l6 22h-11c-6 0-15-11-22-25l-11-24-8 5-8 4 15 36c8 20 13 43 12 52l-4 17-22-43c-12-23-25-42-28-42-4 0-33 17-62 36-2 1 6 20 19 41l22 39-6 26-7 27-20 6-19 6-21-11-21-11-44-69-44-69-26-17-25-16-27 7c-16 3-38 16-50 27l-23 21v74l23 21 22 21 85 31c47 17 101 38 120 45l35 14-32 1c-32 0-150-32-185-51-10-5-25-9-33-9h-15v13c0 7 7 22 15 33 8 10 15 28 15 39v19l-30-34-29-35-1 13c0 7 7 27 16 43l15 30-20-11c-12-6-21-15-21-20 0-6-7-10-15-10h-16l23 39 23 40-8 7-7 7-21-27c-29-37-34-26-8 18l21 37-6 7-7 6-24-29-25-30-24 28-23 29-26-26c-30-30-49-33-71-10l-16 15v22c0 13 7 32 15 43l14 21-11 31-12 31 24 26 23 25h27c15 0 30-3 34-7l7-7-22-17-21-16 29 4 30 5 18-28 18-27 13 18c8 10 14 27 14 38v19l-30 30-31 30-37-5c-20-3-46-8-58-12l-21-7-17 41c-9 23-16 50-16 60v19l52 19 53 18-49 3-48 3-46-15c-58-20-81-20-104 1l-18 16v53l12 12 12 12h29c16 0 56-7 90-16l60-15 49 12 49 11 20 21 19 21v53l-20 18-20 18-32-6c-18-3-46-11-63-18l-30-13 50-6 50-5v-50l-38-6c-21-3-49-4-62-1l-24 4-6 17c-4 9-9 68-12 132l-6 116 7 37 7 37 17-2c9-2 29 0 44 4l28 7 15 30c19 36 19 53 0 89l-14 29-31 10-30 11v19c0 26 20 84 34 99l11 13 38-11 37-10 20 11 20 11v18c0 10-9 30-21 45l-20 26h-33l22-16 22-15v-41l-32 6c-18 4-70 10-116 13l-82 6-12 15-12 14 18 13 18 14 58-21 58-21 24 19 24 19-4 17c-4 19 24 78 37 78 4 0 16-19 27-42zm2307-37-28-24-3 16-3 16 17 26 18 27 13-18 14-19-28-24zm186 34 28-14 13-30 12-31-6-35-7-35-27-18-26-17h-86c-47-1-92-4-100-8l-15-7-12 31-12 31-21 5-21 6 3 16 3 15 44 8 43 7 52 39c73 56 90 61 135 37zm-712-224 32-54-9-16c-5-9-16-25-25-35l-15-20-6 7c-4 3-8 23-9 44l-2 38-16 32c-10 18-17 39-17 48v16l17-3 18-3 32-54zm-1277-11c-19-38-30-49-30-32 0 10 39 72 45 72 3 0-4-18-15-40zm20-36-20-48-12 12-11 11 28 48 28 48 4-12c3-7-5-33-17-59zm-625-49 25-24v-19c0-27-21-50-52-57l-27-7-25 25-25 25 8 28 7 29 25 12c33 17 36 17 64-12zm2139-136 9-74-11-110-11-110-24-70c-13-38-40-102-60-141l-36-71-59-74c-32-41-80-92-106-114-95-80-265-171-353-190l-33-7v11c0 5 5 21 11 34l11 25 72 28c232 94 409 286 486 529l22 70 5 135 5 135 21 38 21 37 10-3 11-4 9-74zm392 53 3-17-12-7c-17-11-55-10-62 2l-6 10 33 19c34 21 40 20 44-7zM656 1526l2-111 20-78 21-77 52-100 51-101 76-80 76-81 55-38c69-46 150-87 216-110l50-17 19-33 20-33-35 5c-19 3-72 20-118 38l-83 32-87 59-87 58-71 74-71 75-40 68c-23 38-54 103-71 144l-30 75-16 90-17 90 5 102c2 56 8 107 12 113l8 12 20-32 21-33 2-111zm2144 89c0-8 0-18 1-22 1-14-16-12-36 3l-20 15 15 9c8 5 21 10 28 10h12v-15zm-620-69c0-2-8-10-17-17l-18-14 14 18c13 16 21 21 21 13zM821 1416c1-28 5-62 9-76l9-25-6 68-6 67h9c5 0 29-21 54-45l44-45 16 5 16 5 44-96 43-96-11-32c-17-47-15-52 12-27l24 23 6-11 7-10-17-26c-9-14-14-28-11-31s8 4 12 16l7 21 11-4 12-4-1-19c-1-10-5-28-8-39l-8-20 15 17c19 24 28 12 15-18l-11-24 7-7 7-7 9 14c5 8 11 12 13 10 12-13 68-133 64-137-8-7-103 43-157 82-27 20-75 64-106 98l-55 62-40 80-39 80-15 70c-8 39-15 95-14 125v55l19-24 20-23 1-52zm1412 41c-15-142-68-280-148-385l-47-62-72-56c-72-58-151-102-161-92-11 11 220 462 258 506 11 12 25 22 32 22 6 0 37 27 70 59 33 33 62 58 66 55l7-4-5-43zm-49-359c-4-7-27-39-52-71l-44-58-65-54c-61-50-161-110-226-134l-27-11v9c0 5 29 23 65 39 118 56 227 140 300 233 42 54 67 77 49 47zm451-13 25-24v-70l-26-20c-33-26-54-26-87-1l-25 20-7 30-6 29 11 21c12 22 42 38 73 39l18 1 24-25zm105-55c0-21-90-191-139-264-28-41-86-112-130-158l-79-83-8 7-7 8 84 87 84 88 48 72c61 93 117 202 117 231v22h15c8 0 15-5 15-10zM752 928l-12-12v10c0 14 12 26 19 19 2-3-1-11-7-17zm451-123c26-10 47-22 47-27v-9l-22 7c-33 10-130 60-153 79l-20 16 50-24c28-13 71-32 98-42zM760 535l-12-15h16l-11-11-11-11-12 7-11 7 17 19c9 10 21 19 27 19h9l-12-15zm1580-44c0-16-200-151-223-151s1 23 56 54c34 20 82 51 107 71 47 36 60 42 60 26zM786 414c68-46 194-112 254-132l30-11v-22l-22 7c-86 27-338 172-338 195 0 14 2 13 76-37zm1258 25 26-20v-30l-22 7c-67 20-85 34-73 54 10 16 40 11 69-11zm356-55v-24h-19c-11 0-23 5-26 11l-7 10 7 37 7 37 19-24 19-23v-24zm-510-124v-9l-67-20c-38-11-96-23-130-27l-63-7v20l73 12c39 6 92 18 117 26 55 17 70 18 70 5zm-589-31c30-6 74-10 98-9 25 0 62-2 83-5l38-7v-18h-57c-49 0-140 11-210 26-13 2-23 9-23 14 0 13 5 12 71-1zm-86 2506-25-24v-21c0-29 26-76 45-84 9-3 29-6 45-6h28l21 18 22 17 5 37 6 37-25 25-26 26h-72l-24-25zm97-2 18-16v-50l-17-19-16-18h-44l-15 18c-9 9-19 27-22 39l-7 22 20 20 21 21h43l19-17zm-150-3c-7-11-12-30-12-42l1-23 14 40c16 44 15 53-3 25zm255-21c7-7 15-10 18-7s-2 9-12 12l-18 7 12-12zm424-131-1-17-17-10-18-10 11-1c6 0 17 7 24 15l12 14-5 13-5 13-1-17zm-971-33 22-36-4-29-4-29 8 5c4 3 8 22 8 43v37l-20 22c-31 32-35 27-10-13zm760-5v-10h85l-15 10c-8 5-27 10-42 10h-28v-10zm-843-6c-10-11-9-52 3-59l10-6 20 11 21 11-3 22-3 22-20 3c-12 2-24 0-28-4zm1472-41-14-18 18 14c9 7 17 15 17 17 0 8-8 3-21-13zm-961-10c7-3 16-2 19 1 4 3-2 6-13 5l-19-1 13-5zm-168-43-15-10 10 1c6 0 19 4 30 9l20 9h-15c-8 0-22-4-30-9zm-560-53c0-2 14-16 32-33 30-28 30-17 0 19-13 15-32 23-32 14zm860-187c-63-9-114-27-187-63-28-15-53-23-57-20-3 4-6 1-6-6v-12l-11 6-10 7 3-18 3-19-13 3-13 2 5-9 6-10-12-8c-21-13-65-83-99-158l-32-70-5-101-4-100 17-60c9-32 30-84 47-115l29-57 50-50c28-28 76-67 107-85l57-35 60-17 60-18 90 1 90 1 59 20c71 25 115 51 181 106l50 42 42 79c23 44 49 106 59 139l17 60-6 107-6 107-32 65-33 65-43 50-43 50-60 39-60 40-62 20c-76 25-164 33-238 22zm210-84 45-7 60-34c33-18 79-50 102-70l43-36 40-82 40-82 6-76 6-75-17-59c-23-82-45-121-106-194l-52-62-66-43c-36-24-83-49-105-56l-38-12-97 4-96 4-83 39-84 39-39 45c-48 54-93 145-115 231l-17 65 9 60 8 60 6-70 5-70 12-21c7-12 26-33 43-47l30-26 54-12 55-12 73 17c40 10 92 26 116 36l42 19 48-21 47-22 90-4 90-3 45 23 45 23 23 45 22 44v71l-19 40c-23 50-45 70-100 90l-44 15h-51l-51-1-80-27-80-27-66 34-66 33-66 5c-36 3-77 3-90-1-36-9-84-52-107-95l-19-36-1 16c-1 60 68 180 141 243l40 34 82 26 82 26h125v21l18-9c9-5 37-12 62-16zm-240-281c30-15 66-36 81-47l27-21 33 23c17 13 57 34 88 46l56 24h110l31-19 32-19 17-46 17-45-7-47-7-46-33-36-34-37h-136l-65 32c-36 18-73 38-82 45l-18 13-17-13c-10-7-51-29-92-49l-75-37-51-1h-52l-26 14c-15 8-34 26-43 40l-17 25-4 65-4 66 18 35 18 35 35 18 35 18 56-4 55-5 54-27zm341 155c0-8 4-22 9-30l10-15-1 10c0 6-4 19-9 30l-9 20v-15zm-557-545 7-30 34-32 35-33 17 1h18l-23 16c-13 9-40 37-59 62l-36 46 7-30zm48 323-12-12v-95l21-12 21-11 37 7c36 7 115 47 126 65l6 9-60 31-60 30h-67l-12-12zm478 2c-52-16-120-50-120-58 0-5 26-21 59-36l59-26h71l11 19c5 11 10 31 10 45v26l-20 20c-21 21-31 23-70 10zm-529-56 1-19 5 13c3 7 2 16-1 19-3 4-6-2-5-13zm104-649c117-250 209-441 216-449l8-9 87 179c47 98 106 221 130 273l44 93-17-7c-10-4-45-16-78-27l-60-20h-116l-117 1-51 22c-28 12-51 24-51 28s-8 7-19 7h-18l42-91zm365 1c0-3-22-49-49-104-26-55-53-113-59-131l-11-31h-56l-24 63c-13 34-37 88-52 119-16 32-29 62-29 67v10l88-5 87-6 40 10c47 12 65 14 65 8zm170 54c-6-11-8-20-6-20 3 0 10 9 16 20s8 20 6 20c-3 0-10-9-16-20zm-230-490c-6-11-8-20-6-20 3 0 10 9 16 20s8 20 6 20c-3 0-10-9-16-20zm-66-130c-4-16-11-30-16-30h-9l7-11 6-11 8 9c10 11 23 73 16 73-4 0-9-13-12-30zM439 2105c5-11 17-29 26-40l16-20-10 20c-5 11-17 29-26 40l-16 20 10-20zm159-122c6-2 18-2 25 0l12 5h-50l13-5zm-102-198-5-15h9c6 0 10 7 10 15s-2 15-4 15-6-7-10-15zm2011-176c3-74 8-136 10-139 2-2 9 2 14 10l10 15-3 107-3 108-17 16-17 17 6-134zM475 1500l4-115 10-30 11-30-7 40c-3 22-9 87-14 145l-7 105 3-115zm2280-10 6-10h148l6 10 6 10h-172l6-10zm-258-122c-10-21-17-49-17-64v-26l15 12c16 14 29 68 22 97l-4 18-16-37zm93-188c0-5 11-12 25-16l26-6 7 6 6 7-14 9c-8 6-23 10-32 10h-18v-10zm-174-366-6-16-15 6-15 5v-29h29l11 21c7 11 10 23 7 25-2 3-7-3-11-12zm-323-93-31-20-7-21-7-22 6-33 7-34 26-21 26-20h75l31 26 31 26v28c0 16-5 41-12 55l-12 26-27 15c-38 19-68 18-106-5zm99-18 18-16v-31c0-37-7-49-37-65l-22-11-25 10c-28 10-46 38-46 69v21l20 20 20 20h53l19-17zm82-38c-11-28 26-50 41-25l7 11-12 14c-16 19-29 19-36 0zM961 514l-21-27v-46l26-20 27-21h44l27 21 26 20v59l-20 20-20 20h-69l-20-26zm88-23 11-19-21-26-20-26-19 10c-10 5-22 19-25 30l-7 21 12 14 12 15h47l10-19zm-232-8c-4-3-7-11-7-17v-10l12 12c6 6 9 14 7 17-3 3-9 2-12-2zm1256 820c-4-9-26-49-50-87-24-39-43-75-43-81 0-5 19 19 41 54 41 64 74 131 64 131-3 0-9-8-12-17z"/></g></g></svg>